<svg width="3069" height="1155" viewBox="0 0 3069 1155" fill="none" xmlns="http://www.w3.org/2000/svg">
<g clip-path="url(#clip0_6588_6244)">
<g clip-path="url(#clip1_6588_6244)">
<rect x="-1.18652" y="98.6641" width="1053.84" height="1053.84" rx="166.397" transform="rotate(-5 -1.18652 98.6641)" fill="#191A24"/>
<rect x="28.8574" y="123.875" width="998.379" height="998.379" rx="133.117" transform="rotate(-5 28.8574 123.875)" fill="#EAC14E"/>
<mask id="path-3-inside-1_6588_6244" fill="white">
<path d="M40.4935 256.509C34.086 183.27 88.2634 118.704 161.502 112.297L890.8 48.4912C964.039 42.0837 1028.6 96.2612 1035.01 169.5L1091.57 815.937C1097.98 889.176 1043.8 953.742 970.559 960.149L241.262 1023.95C168.023 1030.36 103.457 976.185 97.0494 902.946L40.4935 256.509Z"/>
</mask>
<path d="M40.4935 256.509C34.086 183.27 88.2634 118.704 161.502 112.297L890.8 48.4912C964.039 42.0837 1028.6 96.2612 1035.01 169.5L1091.57 815.937C1097.98 889.176 1043.8 953.742 970.559 960.149L241.262 1023.95C168.023 1030.36 103.457 976.185 97.0494 902.946L40.4935 256.509Z" fill="#FFD766"/>
<path d="M161.502 112.297L166.336 167.551L895.634 103.746L890.8 48.4912L885.966 -6.76322L156.668 57.042L161.502 112.297ZM1035.01 169.5L979.758 174.334L1036.31 820.771L1091.57 815.937L1146.82 811.103L1090.27 164.666L1035.01 169.5ZM970.559 960.149L965.725 904.895L236.428 968.7L241.262 1023.95L246.096 1079.21L975.394 1015.4L970.559 960.149ZM97.0494 902.946L152.304 898.112L95.748 251.675L40.4935 256.509L-14.7609 261.343L41.795 907.78L97.0494 902.946ZM241.262 1023.95L236.428 968.7C193.705 972.438 156.042 940.835 152.304 898.112L97.0494 902.946L41.795 907.78C50.8723 1011.54 142.341 1088.29 246.096 1079.21L241.262 1023.95ZM1091.57 815.937L1036.31 820.771C1040.05 863.494 1008.45 901.157 965.725 904.895L970.559 960.149L975.394 1015.4C1079.15 1006.33 1155.9 914.858 1146.82 811.103L1091.57 815.937ZM890.8 48.4912L895.634 103.746C938.357 100.008 976.02 131.611 979.758 174.334L1035.01 169.5L1090.27 164.666C1081.19 60.9109 989.721 -15.8406 885.966 -6.76322L890.8 48.4912ZM161.502 112.297L156.668 57.042C52.9131 66.1194 -23.8383 157.588 -14.7609 261.343L40.4935 256.509L95.748 251.675C92.0102 208.952 123.614 171.289 166.336 167.551L161.502 112.297Z" fill="#FBDB7B" mask="url(#path-3-inside-1_6588_6244)"/>
<path d="M545.244 281.924C586.73 278.708 620.619 309.66 629.073 357.347C633.182 380.528 631.561 397.926 629.644 411.979C627.642 426.661 626.083 434.48 627.784 442.888C628.127 444.583 629.346 446.952 632.692 449.863C636.043 452.777 640.771 455.552 646.424 458.02C657.041 462.655 668.796 465.299 675.19 466.212L740.888 460.464C748.484 459.877 760.848 461.28 772.14 467.573C784.181 474.284 794.82 486.569 796.532 506.146C797.833 521.009 794.269 532.895 787.997 541.903C787.215 543.026 786.4 544.09 785.562 545.097C795.795 552.618 805.152 564.709 806.792 583.453C808.524 603.259 798.898 616.858 788.707 625.473C794.219 632.558 798.556 642.479 799.729 655.879C801.12 671.789 794.549 683.981 785.864 692.381C781.973 696.144 777.645 699.182 773.341 701.613C775.319 706.429 776.682 712.094 777.252 718.606C778.368 731.368 776.88 745.892 764.484 757.014C753.301 767.047 735.621 771.927 711.669 774.022C692.35 775.713 676.685 775.15 664.767 773.607C655.985 772.469 648.6 770.718 643.187 768.594C596.38 774.936 545.702 766.585 505.873 737.889C503.128 737.992 499.254 738.442 494.226 739.37C487.222 740.663 479.071 742.67 470.57 745.024C453.554 749.736 436.094 755.566 424.926 759.19L424.928 759.191C424.032 759.481 423.108 759.688 422.16 759.804L421.751 759.849C407.501 761.2 388.299 755.688 371.994 737.976C355.734 720.312 342.965 691.294 339.022 646.186C331.467 559.751 353.944 527.16 373.248 516.339L373.678 516.106C375.695 515.062 377.794 514.562 379.783 514.466L380.207 514.452L453.879 513.022C457.312 508.058 462.524 500.952 469.465 493.023C483.906 476.529 497.152 463.649 505.316 445.469C510.133 434.741 514.071 426.357 516.146 416.534C518.131 407.136 518.452 395.95 514.649 380.631C510.304 363.125 506.826 352.963 504.319 345.887C501.954 339.21 499.543 333.102 498.902 325.771C498.351 319.479 498.298 308.441 506.067 298.63C513.889 288.752 527.024 283.337 545.244 281.924Z" fill="white" stroke="#191A24" stroke-width="27.7328" stroke-linejoin="round"/>
</g>
<g clip-path="url(#clip2_6588_6244)">
<mask id="path-6-outside-2_6588_6244" maskUnits="userSpaceOnUse" x="1258.8" y="247.402" width="1809" height="659" fill="black">
<rect fill="white" x="1258.8" y="247.402" width="1809" height="659"/>
<path d="M2485.85 275.402C2510.43 275.402 2528.59 280.692 2540.33 291.271C2552.08 301.538 2559.73 316.005 2563.28 334.673C2567.1 353.341 2569.01 375.12 2569.01 400.01C2569.01 408.099 2568.87 416.345 2568.6 424.745V476.548C2568.87 485.259 2569.01 493.816 2569.01 502.217C2569.28 510.617 2569.56 518.862 2569.83 526.951C2570.38 535.041 2571.06 542.819 2571.88 550.286C2572.97 562.42 2574.75 573.31 2577.2 582.955C2579.94 592.289 2583.62 600.222 2588.26 606.756C2593.18 613.29 2599.19 618.268 2606.29 621.69C2613.66 625.113 2622.54 627.29 2632.92 628.224C2656.68 630.713 2679.07 633.824 2700.1 637.558C2721.13 641.291 2738.06 644.87 2750.9 648.292C2759.36 649.536 2768.24 651.87 2777.53 655.292C2786.81 658.403 2794.46 662.604 2800.47 667.894C2806.47 673.805 2810.98 681.117 2813.98 689.828C2814.46 691.086 2817.22 690.735 2817.22 689.391V672.587C2817.22 654.98 2817.5 637.06 2818.04 618.824C2818.58 600.274 2819.13 581.567 2819.67 562.703C2820.49 543.839 2821.44 525.132 2822.53 506.582C2823.89 487.718 2825.38 469.639 2827.01 452.347C2828.92 434.74 2831.09 417.919 2833.54 401.885C2839.79 363.527 2850.67 334.917 2866.17 316.053C2881.67 297.189 2906.14 287.756 2939.58 287.756C2966.5 287.756 2986.9 296.559 3000.76 314.166C3014.63 331.773 3023.6 353.938 3027.68 380.662C3029.04 391.037 3030.27 403.143 3031.35 416.977C3032.71 430.496 3033.8 445.116 3034.62 460.836C3035.43 476.556 3036.11 492.748 3036.66 509.411C3037.47 525.76 3038.02 542.109 3038.29 558.458C3038.56 574.493 3038.83 590.056 3039.1 605.147C3039.37 620.239 3039.51 634.072 3039.51 646.648C3039.51 698.211 3036.38 739.87 3030.13 771.625C3023.88 803.065 3012.59 826.017 2996.28 840.479C2980.23 854.942 2956.85 862.173 2926.12 862.173C2889.42 862.173 2862.09 849.597 2844.14 824.444C2836.84 814.209 2831.02 802.517 2826.69 789.367C2824.96 784.101 2805.46 782.67 2802.51 787.367C2791.86 804.79 2777.93 819.258 2760.73 830.77C2743.52 842.281 2725.23 851.46 2705.84 858.305C2688.36 864.527 2666.78 869.35 2641.11 872.772C2615.71 876.506 2590.18 878.372 2564.5 878.372C2551.94 878.372 2539.52 878.217 2527.23 877.906C2514.94 877.906 2503.19 877.284 2492 876.039C2481.07 875.106 2471.24 873.861 2462.5 872.306C2412.52 862.35 2377.84 840.415 2358.45 806.502C2339.33 772.278 2329.77 726.23 2329.77 668.359C2329.77 655.292 2330.18 641.136 2331 625.891C2331.82 610.334 2332.91 594.311 2334.28 577.821C2335.92 561.02 2337.69 544.375 2339.6 527.885C2340.71 519.542 2341.82 511.438 2342.92 503.573C2343.33 500.68 2338.6 499.22 2337.16 501.762C2331.97 511.407 2325.42 520.741 2317.5 529.764C2301.11 547.809 2285.54 562.122 2270.8 572.7C2256.05 583.279 2239.39 593.702 2220.82 603.969C2209.35 610.502 2200.2 616.103 2193.37 620.77C2186.82 625.125 2181.63 629.637 2177.81 634.304C2173.98 638.66 2170.3 644.415 2166.75 651.571C2165.11 655.305 2163.47 660.749 2161.83 667.905C2160.46 675.061 2158.96 683.617 2157.32 693.573C2155.68 703.218 2154.05 713.797 2152.41 725.309C2151.04 736.82 2149.68 748.799 2148.31 761.244C2145.03 788.935 2135.75 811.025 2120.45 827.515C2105.43 843.693 2085.77 851.783 2061.46 851.783C2031.97 851.783 2010.53 845.716 1997.15 833.582C1983.77 821.448 1974.34 802.625 1968.88 777.112C1967.79 771.201 1966.83 764.978 1966.01 758.444C1965.19 751.911 1964.37 745.066 1963.56 737.91C1962.74 730.754 1962.05 723.287 1961.51 715.509C1960.96 707.419 1960.42 699.485 1959.87 691.707C1957.96 667.75 1955.36 646.749 1952.09 628.703C1949.08 610.347 1942.12 597.435 1931.19 589.968C1917.54 580.945 1904.43 573.167 1891.87 566.633C1879.58 560.099 1867.56 553.099 1855.82 545.632C1847.05 539.873 1832.77 549.31 1834.25 559.691C1835.51 568.579 1836.15 577.423 1836.15 586.222C1836.15 617.335 1828.91 646.892 1814.43 674.894C1799.96 702.584 1779.75 728.097 1753.81 751.432C1727.86 774.766 1697.55 794.834 1662.86 811.635C1628.45 828.436 1590.9 841.504 1550.21 850.838C1509.79 860.172 1467.59 864.839 1423.62 864.839C1393.31 864.839 1369.14 860.482 1351.12 851.771C1333.09 843.37 1319.57 830.303 1310.56 812.568C1301.82 794.523 1295.68 771.188 1292.12 742.564C1290.21 726.386 1288.85 708.496 1288.03 688.895C1287.21 669.293 1286.8 647.825 1286.8 624.49C1286.8 582.488 1287.76 543.441 1289.67 507.35C1291.85 470.948 1296.09 438.59 1302.37 410.277C1312.2 367.964 1328.72 334.984 1351.93 311.338C1375.15 287.381 1409.15 275.402 1453.94 275.402C1495.72 275.402 1535.6 281.625 1573.56 294.07C1611.79 306.204 1646.89 322.85 1678.84 344.007C1710.79 364.853 1738.51 388.654 1762 415.411C1765.59 419.503 1773.19 416.262 1772.91 410.825C1772.74 407.42 1772.66 403.975 1772.66 400.489C1772.66 375.91 1777.71 355.064 1787.81 337.952C1797.92 320.529 1811.44 307.306 1828.37 298.283C1845.3 288.949 1864.15 284.282 1884.9 284.282C1900.74 284.282 1914.94 287.705 1927.51 294.55C1940.07 301.084 1951.95 313.374 1963.15 331.419C1968.61 341.375 1974.62 351.642 1981.17 362.221C1987.73 372.488 1994.28 382.133 2000.83 391.155C2007.39 400.489 2014.35 408.89 2021.73 416.357C2029.1 423.824 2036.88 429.736 2045.08 434.092C2053.27 438.136 2061.87 440.158 2070.89 440.158C2080.44 440.158 2089.59 436.891 2098.33 430.357C2107.07 423.824 2115.4 415.89 2123.32 406.557C2133.15 394.734 2142.3 381.977 2150.77 368.287C2159.51 354.286 2167.7 342.619 2175.35 333.285C2187.36 319.907 2199.24 309.639 2210.99 302.483C2223 295.327 2236.25 291.749 2250.72 291.749C2270.93 291.749 2289.23 297.661 2305.62 309.483C2322 321.306 2334.98 336.708 2344.54 355.687C2349.08 364.459 2375.52 365.872 2379.7 356.921C2385.95 343.545 2392.93 331.462 2400.64 320.672C2422.22 290.492 2450.62 275.402 2485.85 275.402ZM1517.84 487.749C1511.56 487.749 1506.37 489.772 1502.28 493.816C1498.46 497.861 1495.45 503.928 1493.27 512.017C1491.9 517.306 1490.81 523.529 1489.99 530.685C1489.44 537.841 1489.17 545.775 1489.17 554.486C1489.17 567.554 1489.44 579.221 1489.99 589.488C1490.53 599.755 1491.49 608.467 1492.86 615.623C1496.68 634.291 1504.46 643.625 1516.21 643.625C1529.86 643.625 1542.15 642.069 1553.08 638.958C1564.27 635.536 1574.1 631.18 1582.57 625.891C1591.04 620.29 1598.14 614.067 1603.87 607.223C1609.88 600.067 1614.39 593.066 1617.39 586.222C1620.39 579.066 1621.9 572.376 1621.9 566.153C1621.9 559.62 1620.26 552.775 1616.98 545.619C1613.98 538.463 1609.33 531.463 1603.05 524.618C1597.04 517.773 1589.81 511.706 1581.34 506.417C1572.88 500.817 1563.32 496.305 1552.67 492.883C1542.01 489.46 1530.41 487.749 1517.84 487.749Z"/>
</mask>
<path d="M2485.85 275.402C2510.43 275.402 2528.59 280.692 2540.33 291.271C2552.08 301.538 2559.73 316.005 2563.28 334.673C2567.1 353.341 2569.01 375.12 2569.01 400.01C2569.01 408.099 2568.87 416.345 2568.6 424.745V476.548C2568.87 485.259 2569.01 493.816 2569.01 502.217C2569.28 510.617 2569.56 518.862 2569.83 526.951C2570.38 535.041 2571.06 542.819 2571.88 550.286C2572.97 562.42 2574.75 573.31 2577.2 582.955C2579.94 592.289 2583.62 600.222 2588.26 606.756C2593.18 613.29 2599.19 618.268 2606.29 621.69C2613.66 625.113 2622.54 627.29 2632.92 628.224C2656.68 630.713 2679.07 633.824 2700.1 637.558C2721.13 641.291 2738.06 644.87 2750.9 648.292C2759.36 649.536 2768.24 651.87 2777.53 655.292C2786.81 658.403 2794.46 662.604 2800.47 667.894C2806.47 673.805 2810.98 681.117 2813.98 689.828C2814.46 691.086 2817.22 690.735 2817.22 689.391V672.587C2817.22 654.98 2817.5 637.06 2818.04 618.824C2818.58 600.274 2819.13 581.567 2819.67 562.703C2820.49 543.839 2821.44 525.132 2822.53 506.582C2823.89 487.718 2825.38 469.639 2827.01 452.347C2828.92 434.74 2831.09 417.919 2833.54 401.885C2839.79 363.527 2850.67 334.917 2866.17 316.053C2881.67 297.189 2906.14 287.756 2939.58 287.756C2966.5 287.756 2986.9 296.559 3000.76 314.166C3014.63 331.773 3023.6 353.938 3027.68 380.662C3029.04 391.037 3030.27 403.143 3031.35 416.977C3032.71 430.496 3033.8 445.116 3034.62 460.836C3035.43 476.556 3036.11 492.748 3036.66 509.411C3037.47 525.76 3038.02 542.109 3038.29 558.458C3038.56 574.493 3038.83 590.056 3039.1 605.147C3039.37 620.239 3039.51 634.072 3039.51 646.648C3039.51 698.211 3036.38 739.87 3030.13 771.625C3023.88 803.065 3012.59 826.017 2996.28 840.479C2980.23 854.942 2956.85 862.173 2926.12 862.173C2889.42 862.173 2862.09 849.597 2844.14 824.444C2836.84 814.209 2831.02 802.517 2826.69 789.367C2824.96 784.101 2805.46 782.67 2802.51 787.367C2791.86 804.79 2777.93 819.258 2760.73 830.77C2743.52 842.281 2725.23 851.46 2705.84 858.305C2688.36 864.527 2666.78 869.35 2641.11 872.772C2615.71 876.506 2590.18 878.372 2564.5 878.372C2551.94 878.372 2539.52 878.217 2527.23 877.906C2514.94 877.906 2503.19 877.284 2492 876.039C2481.07 875.106 2471.24 873.861 2462.5 872.306C2412.52 862.35 2377.84 840.415 2358.45 806.502C2339.33 772.278 2329.77 726.23 2329.77 668.359C2329.77 655.292 2330.18 641.136 2331 625.891C2331.82 610.334 2332.91 594.311 2334.28 577.821C2335.92 561.02 2337.69 544.375 2339.6 527.885C2340.71 519.542 2341.82 511.438 2342.92 503.573C2343.33 500.68 2338.6 499.22 2337.16 501.762C2331.97 511.407 2325.42 520.741 2317.5 529.764C2301.11 547.809 2285.54 562.122 2270.8 572.7C2256.05 583.279 2239.39 593.702 2220.82 603.969C2209.35 610.502 2200.2 616.103 2193.37 620.77C2186.82 625.125 2181.63 629.637 2177.81 634.304C2173.98 638.66 2170.3 644.415 2166.75 651.571C2165.11 655.305 2163.47 660.749 2161.83 667.905C2160.46 675.061 2158.96 683.617 2157.32 693.573C2155.68 703.218 2154.05 713.797 2152.41 725.309C2151.04 736.82 2149.68 748.799 2148.31 761.244C2145.03 788.935 2135.75 811.025 2120.45 827.515C2105.43 843.693 2085.77 851.783 2061.46 851.783C2031.97 851.783 2010.53 845.716 1997.15 833.582C1983.77 821.448 1974.34 802.625 1968.88 777.112C1967.79 771.201 1966.83 764.978 1966.01 758.444C1965.19 751.911 1964.37 745.066 1963.56 737.91C1962.74 730.754 1962.05 723.287 1961.51 715.509C1960.96 707.419 1960.42 699.485 1959.87 691.707C1957.96 667.75 1955.36 646.749 1952.09 628.703C1949.08 610.347 1942.12 597.435 1931.19 589.968C1917.54 580.945 1904.43 573.167 1891.87 566.633C1879.58 560.099 1867.56 553.099 1855.82 545.632C1847.05 539.873 1832.77 549.31 1834.25 559.691C1835.51 568.579 1836.15 577.423 1836.15 586.222C1836.15 617.335 1828.91 646.892 1814.43 674.894C1799.96 702.584 1779.75 728.097 1753.81 751.432C1727.86 774.766 1697.55 794.834 1662.86 811.635C1628.45 828.436 1590.9 841.504 1550.21 850.838C1509.79 860.172 1467.59 864.839 1423.62 864.839C1393.31 864.839 1369.14 860.482 1351.12 851.771C1333.09 843.37 1319.57 830.303 1310.56 812.568C1301.82 794.523 1295.68 771.188 1292.12 742.564C1290.21 726.386 1288.85 708.496 1288.03 688.895C1287.21 669.293 1286.8 647.825 1286.8 624.49C1286.8 582.488 1287.76 543.441 1289.67 507.35C1291.85 470.948 1296.09 438.59 1302.37 410.277C1312.2 367.964 1328.72 334.984 1351.93 311.338C1375.15 287.381 1409.15 275.402 1453.94 275.402C1495.72 275.402 1535.6 281.625 1573.56 294.07C1611.79 306.204 1646.89 322.85 1678.84 344.007C1710.79 364.853 1738.51 388.654 1762 415.411C1765.59 419.503 1773.19 416.262 1772.91 410.825C1772.74 407.42 1772.66 403.975 1772.66 400.489C1772.66 375.91 1777.71 355.064 1787.81 337.952C1797.92 320.529 1811.44 307.306 1828.37 298.283C1845.3 288.949 1864.15 284.282 1884.9 284.282C1900.74 284.282 1914.94 287.705 1927.51 294.55C1940.07 301.084 1951.95 313.374 1963.15 331.419C1968.61 341.375 1974.62 351.642 1981.17 362.221C1987.73 372.488 1994.28 382.133 2000.83 391.155C2007.39 400.489 2014.35 408.89 2021.73 416.357C2029.1 423.824 2036.88 429.736 2045.08 434.092C2053.27 438.136 2061.87 440.158 2070.89 440.158C2080.44 440.158 2089.59 436.891 2098.33 430.357C2107.07 423.824 2115.4 415.89 2123.32 406.557C2133.15 394.734 2142.3 381.977 2150.77 368.287C2159.51 354.286 2167.7 342.619 2175.35 333.285C2187.36 319.907 2199.24 309.639 2210.99 302.483C2223 295.327 2236.25 291.749 2250.72 291.749C2270.93 291.749 2289.23 297.661 2305.62 309.483C2322 321.306 2334.98 336.708 2344.54 355.687C2349.08 364.459 2375.52 365.872 2379.7 356.921C2385.95 343.545 2392.93 331.462 2400.64 320.672C2422.22 290.492 2450.62 275.402 2485.85 275.402ZM1517.84 487.749C1511.56 487.749 1506.37 489.772 1502.28 493.816C1498.46 497.861 1495.45 503.928 1493.27 512.017C1491.9 517.306 1490.81 523.529 1489.99 530.685C1489.44 537.841 1489.17 545.775 1489.17 554.486C1489.17 567.554 1489.44 579.221 1489.99 589.488C1490.53 599.755 1491.49 608.467 1492.86 615.623C1496.68 634.291 1504.46 643.625 1516.21 643.625C1529.86 643.625 1542.15 642.069 1553.08 638.958C1564.27 635.536 1574.1 631.18 1582.57 625.891C1591.04 620.29 1598.14 614.067 1603.87 607.223C1609.88 600.067 1614.39 593.066 1617.39 586.222C1620.39 579.066 1621.9 572.376 1621.9 566.153C1621.9 559.62 1620.26 552.775 1616.98 545.619C1613.98 538.463 1609.33 531.463 1603.05 524.618C1597.04 517.773 1589.81 511.706 1581.34 506.417C1572.88 500.817 1563.32 496.305 1552.67 492.883C1542.01 489.46 1530.41 487.749 1517.84 487.749Z" fill="#FFD766"/>
<path d="M2485.85 275.402V247.67V247.67V275.402ZM2540.33 291.271L2521.77 311.876L2521.93 312.014L2522.08 312.149L2540.33 291.271ZM2563.28 334.673L2536.03 339.854L2536.07 340.046L2536.11 340.237L2563.28 334.673ZM2569.01 400.01H2596.74V400.01L2569.01 400.01ZM2568.6 424.745L2540.88 423.844L2540.87 424.294V424.745H2568.6ZM2568.6 476.548H2540.87V476.982L2540.88 477.417L2568.6 476.548ZM2569.01 502.217H2541.28V502.667L2541.29 503.118L2569.01 502.217ZM2569.83 526.951L2542.11 527.887L2542.13 528.354L2542.16 528.819L2569.83 526.951ZM2571.88 550.286L2599.5 547.799L2599.48 547.53L2599.45 547.261L2571.88 550.286ZM2577.2 582.955L2550.33 589.804L2550.45 590.276L2550.59 590.743L2577.2 582.955ZM2588.26 606.756L2565.66 622.82L2565.88 623.127L2566.1 623.429L2588.26 606.756ZM2606.29 621.69L2594.25 646.673L2594.43 646.761L2594.61 646.846L2606.29 621.69ZM2632.92 628.224L2635.81 600.642L2635.6 600.621L2635.4 600.602L2632.92 628.224ZM2700.1 637.558L2695.25 664.863L2700.1 637.558ZM2750.9 648.292L2743.75 675.089L2745.29 675.499L2746.86 675.73L2750.9 648.292ZM2777.53 655.292L2767.93 681.314L2768.32 681.457L2768.71 681.588L2777.53 655.292ZM2800.47 667.894L2819.92 648.125L2819.37 647.586L2818.79 647.078L2800.47 667.894ZM2813.98 689.828L2787.77 698.869L2787.89 699.233L2788.03 699.593L2813.98 689.828ZM2817.22 672.587H2789.49V672.587H2817.22ZM2818.04 618.824L2845.76 619.651L2845.76 619.637L2818.04 618.824ZM2819.67 562.703L2791.96 561.505L2791.96 561.704L2791.95 561.904L2819.67 562.703ZM2822.53 506.582L2794.87 504.589L2794.85 504.774L2794.84 504.959L2822.53 506.582ZM2827.01 452.347L2799.44 449.366L2799.42 449.554L2799.4 449.742L2827.01 452.347ZM2833.54 401.885L2806.17 397.422L2806.14 397.561L2806.12 397.701L2833.54 401.885ZM2866.17 316.053L2887.6 333.658V333.658L2866.17 316.053ZM2939.58 287.756V260.023H2939.58L2939.58 287.756ZM3000.76 314.166L3022.55 297.006L3022.55 297.006L3000.76 314.166ZM3027.68 380.662L3055.18 377.059L3055.14 376.768L3055.1 376.478L3027.68 380.662ZM3031.35 416.977L3003.71 419.15L3003.73 419.451L3003.76 419.751L3031.35 416.977ZM3034.62 460.836L3062.31 459.399V459.399L3034.62 460.836ZM3036.66 509.411L3008.94 510.316L3008.95 510.555L3008.96 510.793L3036.66 509.411ZM3038.29 558.458L3010.56 558.919L3010.56 558.928L3038.29 558.458ZM3039.1 605.147L3011.37 605.647L3039.1 605.147ZM3039.51 646.648H3067.24V646.648H3039.51ZM3030.13 771.625L3057.33 777.035L3057.33 777.01L3057.34 776.984L3030.13 771.625ZM2996.28 840.479L2977.88 819.727L2977.79 819.804L2977.71 819.881L2996.28 840.479ZM2926.12 862.173V889.906V889.906V862.173ZM2844.14 824.444L2821.57 840.552V840.552L2844.14 824.444ZM2802.51 787.367L2779.02 772.635L2778.93 772.768L2778.85 772.902L2802.51 787.367ZM2760.73 830.77L2745.31 807.72V807.72L2760.73 830.77ZM2705.84 858.305L2696.6 832.154L2696.57 832.166L2696.53 832.178L2705.84 858.305ZM2641.11 872.772L2637.45 845.283L2637.26 845.307L2637.08 845.335L2641.11 872.772ZM2564.5 878.372V906.105V906.105V878.372ZM2527.23 877.906L2527.93 850.182L2527.58 850.173H2527.23V877.906ZM2492 876.039L2495.06 848.476L2494.71 848.437L2494.36 848.407L2492 876.039ZM2462.5 872.306L2457.08 899.504L2457.36 899.559L2457.64 899.609L2462.5 872.306ZM2358.45 806.502L2334.24 820.026L2334.31 820.147L2334.37 820.267L2358.45 806.502ZM2329.77 668.359L2302.04 668.359V668.359H2329.77ZM2331 625.891L2358.69 627.379L2358.7 627.364L2358.7 627.349L2331 625.891ZM2334.28 577.821L2306.68 575.129L2306.66 575.331L2306.64 575.533L2334.28 577.821ZM2339.6 527.885L2312.11 524.242L2312.08 524.466L2312.06 524.691L2339.6 527.885ZM2337.16 501.762L2313.03 488.096L2312.88 488.358L2312.74 488.622L2337.16 501.762ZM2317.5 529.764L2338.03 548.407L2338.19 548.234L2338.34 548.059L2317.5 529.764ZM2270.8 572.7L2286.96 595.235L2286.96 595.235L2270.8 572.7ZM2220.82 603.969L2207.4 579.698L2207.25 579.784L2207.09 579.871L2220.82 603.969ZM2193.37 620.77L2208.72 643.867L2208.87 643.767L2209.02 643.665L2193.37 620.77ZM2177.81 634.304L2198.65 652.599L2198.96 652.244L2199.26 651.879L2177.81 634.304ZM2166.75 651.571L2141.9 639.246L2141.61 639.829L2141.35 640.426L2166.75 651.571ZM2161.83 667.905L2134.8 661.715L2134.68 662.209L2134.59 662.707L2161.83 667.905ZM2157.32 693.573L2184.66 698.218L2184.68 698.148L2184.69 698.077L2157.32 693.573ZM2152.41 725.309L2124.95 721.4L2124.91 721.721L2124.87 722.042L2152.41 725.309ZM2148.31 761.244L2175.85 764.504L2175.86 764.386L2175.88 764.269L2148.31 761.244ZM2120.45 827.515L2140.78 846.384L2140.78 846.378L2140.79 846.373L2120.45 827.515ZM2061.46 851.783V879.516H2061.46L2061.46 851.783ZM1997.15 833.582L1978.52 854.127L1978.52 854.127L1997.15 833.582ZM1968.88 777.112L1941.61 782.152L1941.68 782.536L1941.76 782.918L1968.88 777.112ZM1966.01 758.444L1938.5 761.895L1966.01 758.444ZM1963.56 737.91L1991.11 734.756V734.756L1963.56 737.91ZM1961.51 715.509L1933.84 717.377L1933.84 717.414L1933.84 717.451L1961.51 715.509ZM1959.87 691.707L1987.53 689.764L1987.52 689.633L1987.51 689.501L1959.87 691.707ZM1952.09 628.703L1924.72 633.182L1924.76 633.421L1924.8 633.659L1952.09 628.703ZM1931.19 589.968L1946.84 567.073L1946.66 566.95L1946.48 566.83L1931.19 589.968ZM1891.87 566.633L1878.85 591.12L1878.96 591.179L1879.07 591.237L1891.87 566.633ZM1855.82 545.632L1840.59 568.807L1840.76 568.922L1840.94 569.034L1855.82 545.632ZM1836.15 586.222L1863.88 586.222V586.222H1836.15ZM1814.43 674.894L1839.01 687.741L1839.04 687.685L1839.07 687.628L1814.43 674.894ZM1753.81 751.432L1772.35 772.051H1772.35L1753.81 751.432ZM1662.86 811.635L1650.77 786.676L1650.73 786.695L1650.69 786.714L1662.86 811.635ZM1550.21 850.838L1544.01 823.807L1543.99 823.812L1543.97 823.816L1550.21 850.838ZM1423.62 864.839L1423.62 892.572H1423.62V864.839ZM1351.12 851.771L1363.18 826.801L1363.01 826.716L1362.83 826.634L1351.12 851.771ZM1310.56 812.568L1285.6 824.656L1285.72 824.895L1285.84 825.133L1310.56 812.568ZM1292.12 742.564L1264.58 745.819L1264.59 745.898L1264.6 745.978L1292.12 742.564ZM1288.03 688.895L1260.32 690.053V690.053L1288.03 688.895ZM1286.8 624.49H1259.07V624.49H1286.8ZM1289.67 507.35L1261.98 505.688L1261.98 505.785L1261.97 505.883L1289.67 507.35ZM1302.37 410.277L1275.35 404.001L1275.32 404.136L1275.29 404.271L1302.37 410.277ZM1351.93 311.338L1371.72 330.766L1371.79 330.702L1371.85 330.637L1351.93 311.338ZM1453.94 275.402V247.67H1453.94L1453.94 275.402ZM1573.56 294.07L1564.92 320.423L1565.04 320.464L1565.17 320.504L1573.56 294.07ZM1678.84 344.007L1663.53 367.13L1663.61 367.182L1663.69 367.234L1678.84 344.007ZM1762 415.411L1741.16 433.706V433.706L1762 415.411ZM1772.66 400.489L1744.92 400.489V400.489H1772.66ZM1787.81 337.952L1811.69 352.053L1811.75 351.96L1811.8 351.865L1787.81 337.952ZM1828.37 298.283L1841.41 322.758L1841.59 322.665L1841.76 322.57L1828.37 298.283ZM1884.9 284.282V256.549V256.549V284.282ZM1927.51 294.55L1914.24 318.902L1914.47 319.03L1914.71 319.154L1927.51 294.55ZM1963.15 331.419L1987.46 318.08L1987.1 317.428L1986.71 316.797L1963.15 331.419ZM1981.17 362.221L1957.6 376.828L1957.69 376.986L1957.8 377.143L1981.17 362.221ZM2000.83 391.155L2023.53 375.218L2023.4 375.036L2023.27 374.856L2000.83 391.155ZM2021.73 416.357L2001.99 435.844L2001.99 435.844L2021.73 416.357ZM2045.08 434.092L2032.06 458.579L2032.43 458.775L2032.8 458.959L2045.08 434.092ZM2070.89 440.158V467.891H2070.89L2070.89 440.158ZM2098.33 430.357L2114.94 452.569L2114.94 452.569L2098.33 430.357ZM2123.32 406.557L2144.47 424.5L2144.56 424.395L2144.64 424.289L2123.32 406.557ZM2150.77 368.287L2127.24 353.602L2127.21 353.651L2127.18 353.7L2150.77 368.287ZM2175.35 333.285L2154.72 314.754L2154.29 315.222L2153.9 315.71L2175.35 333.285ZM2210.99 302.483L2196.8 278.656L2196.68 278.728L2196.56 278.801L2210.99 302.483ZM2250.72 291.749V264.016H2250.72L2250.72 291.749ZM2305.62 309.483L2321.84 286.994L2321.84 286.993L2305.62 309.483ZM2344.54 355.687L2319.77 368.161L2319.84 368.302L2319.91 368.443L2344.54 355.687ZM2400.64 320.672L2378.08 304.543L2378.08 304.543L2400.64 320.672ZM1517.84 487.749V460.016H1517.84L1517.84 487.749ZM1502.28 493.816L1482.79 474.082L1482.45 474.418L1482.12 474.766L1502.28 493.816ZM1493.27 512.017L1466.49 504.785L1466.45 504.935L1466.41 505.084L1493.27 512.017ZM1489.99 530.685L1462.44 527.53L1462.38 528.051L1462.34 528.574L1489.99 530.685ZM1489.17 554.486H1461.44V554.486H1489.17ZM1489.99 589.488L1462.29 590.962V590.962L1489.99 589.488ZM1492.86 615.623L1465.62 620.821L1465.65 621.005L1465.69 621.188L1492.86 615.623ZM1516.21 643.625L1516.21 671.358H1516.21V643.625ZM1553.08 638.958L1560.67 665.63L1560.93 665.557L1561.18 665.48L1553.08 638.958ZM1582.57 625.891L1597.26 649.411L1597.57 649.22L1597.87 649.021L1582.57 625.891ZM1603.87 607.223L1582.63 589.39L1582.62 589.401L1582.61 589.412L1603.87 607.223ZM1617.39 586.222L1642.79 597.367L1642.88 597.163L1642.96 596.956L1617.39 586.222ZM1621.9 566.153H1649.63V566.153L1621.9 566.153ZM1616.98 545.619L1591.41 556.354L1591.58 556.763L1591.77 557.167L1616.98 545.619ZM1603.05 524.618L1582.21 542.913L1582.41 543.143L1582.62 543.369L1603.05 524.618ZM1581.34 506.417L1566.04 529.547L1566.34 529.746L1566.65 529.937L1581.34 506.417ZM1552.67 492.883L1561.15 466.48L1561.15 466.48L1552.67 492.883ZM1772.91 410.825L1800.61 409.43L1772.91 410.825ZM1834.25 559.691L1806.79 563.602L1834.25 559.691ZM2379.7 356.921L2354.57 345.184L2379.7 356.921ZM2826.69 789.367L2800.35 798.042L2826.69 789.367ZM2342.92 503.573L2370.38 507.434L2342.92 503.573ZM2485.85 275.402V303.135C2507.22 303.135 2517.3 307.85 2521.77 311.876L2540.33 291.271L2558.9 270.665C2539.88 253.534 2513.64 247.67 2485.85 247.67V275.402ZM2540.33 291.271L2522.08 312.149C2528.21 317.506 2533.38 325.91 2536.03 339.854L2563.28 334.673L2590.52 329.491C2586.07 306.1 2575.95 285.57 2558.59 270.392L2540.33 291.271ZM2563.28 334.673L2536.11 340.237C2539.46 356.617 2541.28 376.456 2541.28 400.01L2569.01 400.01L2596.74 400.01C2596.74 373.784 2594.74 350.064 2590.45 329.108L2563.28 334.673ZM2569.01 400.01H2541.28C2541.28 407.786 2541.15 415.731 2540.88 423.844L2568.6 424.745L2596.32 425.646C2596.6 416.958 2596.74 408.412 2596.74 400.01H2569.01ZM2568.6 424.745H2540.87V476.548H2568.6H2596.33V424.745H2568.6ZM2568.6 476.548L2540.88 477.417C2541.15 485.851 2541.28 494.118 2541.28 502.217H2569.01H2596.74C2596.74 493.515 2596.6 484.668 2596.32 475.679L2568.6 476.548ZM2569.01 502.217L2541.29 503.118C2541.57 511.527 2541.84 519.784 2542.11 527.887L2569.83 526.951L2597.55 526.015C2597.27 517.94 2597 509.707 2596.73 501.316L2569.01 502.217ZM2569.83 526.951L2542.16 528.819C2542.73 537.266 2543.45 545.431 2544.31 553.311L2571.88 550.286L2599.45 547.261C2598.67 540.207 2598.02 532.815 2597.5 525.083L2569.83 526.951ZM2571.88 550.286L2544.26 552.773C2545.45 566.065 2547.44 578.451 2550.33 589.804L2577.2 582.955L2604.08 576.107C2602.06 568.169 2600.49 558.776 2599.5 547.799L2571.88 550.286ZM2577.2 582.955L2550.59 590.743C2554.01 602.428 2558.89 613.299 2565.66 622.82L2588.26 606.756L2610.87 590.692C2608.35 587.146 2605.86 582.149 2603.82 575.167L2577.2 582.955ZM2588.26 606.756L2566.1 623.429C2573.58 633.364 2583.01 641.255 2594.25 646.673L2606.29 621.69L2618.33 596.708C2615.37 595.281 2612.78 593.215 2610.43 590.082L2588.26 606.756ZM2606.29 621.69L2594.61 646.846C2605.57 651.932 2617.73 654.702 2630.43 655.845L2632.92 628.224L2635.4 600.602C2627.35 599.878 2621.75 598.293 2617.97 596.535L2606.29 621.69ZM2632.92 628.224L2630.03 655.805C2653.21 658.234 2674.94 661.258 2695.25 664.863L2700.1 637.558L2704.95 610.252C2683.2 606.391 2660.15 603.192 2635.81 600.642L2632.92 628.224ZM2700.1 637.558L2695.25 664.863C2715.91 668.531 2731.99 671.952 2743.75 675.089L2750.9 648.292L2758.04 621.495C2744.14 617.788 2726.35 614.051 2704.95 610.252L2700.1 637.558ZM2750.9 648.292L2746.86 675.73C2753.17 676.656 2760.18 678.454 2767.93 681.314L2777.53 655.292L2787.12 629.27C2776.3 625.285 2765.56 622.417 2754.93 620.854L2750.9 648.292ZM2777.53 655.292L2768.71 681.588C2775.26 683.78 2779.45 686.342 2782.14 688.71L2800.47 667.894L2818.79 647.078C2809.46 638.867 2798.37 633.027 2786.34 628.996L2777.53 655.292ZM2800.47 667.894L2781.02 687.662C2783.69 690.296 2786.03 693.824 2787.77 698.869L2813.98 689.828L2840.2 680.787C2835.93 668.409 2829.26 657.314 2819.92 648.125L2800.47 667.894ZM2817.22 689.391H2844.96V672.587H2817.22H2789.49V689.391H2817.22ZM2817.22 672.587H2844.96C2844.96 655.266 2845.22 637.621 2845.76 619.651L2818.04 618.824L2790.32 617.998C2789.77 636.498 2789.49 654.694 2789.49 672.587H2817.22ZM2818.04 618.824L2845.76 619.637C2846.3 601.082 2846.85 582.37 2847.39 563.502L2819.67 562.703L2791.95 561.904C2791.41 580.764 2790.86 599.467 2790.32 618.012L2818.04 618.824ZM2819.67 562.703L2847.38 563.901C2848.19 545.177 2849.13 526.612 2850.21 508.205L2822.53 506.582L2794.84 504.959C2793.75 523.652 2792.79 542.501 2791.96 561.505L2819.67 562.703ZM2822.53 506.582L2850.19 508.576C2851.53 489.897 2853.01 472.023 2854.62 454.952L2827.01 452.347L2799.4 449.742C2797.75 467.255 2796.24 485.538 2794.87 504.589L2822.53 506.582ZM2827.01 452.347L2854.58 455.327C2856.45 438.086 2858.57 421.669 2860.95 406.069L2833.54 401.885L2806.12 397.701C2803.61 414.17 2801.38 431.394 2799.44 449.366L2827.01 452.347ZM2833.54 401.885L2860.91 406.347C2866.8 370.235 2876.52 347.134 2887.6 333.658L2866.17 316.053L2844.74 298.447C2824.81 322.7 2812.79 356.82 2806.17 397.422L2833.54 401.885ZM2866.17 316.053L2887.6 333.658C2896.07 323.349 2911.19 315.489 2939.58 315.489L2939.58 287.756L2939.58 260.023C2901.08 260.023 2867.27 271.028 2844.74 298.447L2866.17 316.053ZM2939.58 287.756V315.489C2959.91 315.489 2971.44 321.76 2978.98 331.326L3000.76 314.166L3022.55 297.006C3002.35 271.358 2973.1 260.023 2939.58 260.023V287.756ZM3000.76 314.166L2978.98 331.326C2989.32 344.46 2996.76 361.886 3000.27 384.846L3027.68 380.662L3055.1 376.478C3050.44 345.99 3039.94 319.085 3022.55 297.006L3000.76 314.166ZM3027.68 380.662L3000.18 384.265C3001.47 394.042 3002.64 405.651 3003.71 419.15L3031.35 416.977L3059 414.803C3057.89 400.635 3056.62 388.033 3055.18 377.059L3027.68 380.662ZM3031.35 416.977L3003.76 419.751C3005.07 432.762 3006.12 446.931 3006.92 462.273L3034.62 460.836L3062.31 459.399C3061.48 443.3 3060.36 428.229 3058.95 414.202L3031.35 416.977ZM3034.62 460.836L3006.92 462.273C3007.73 477.805 3008.4 493.819 3008.94 510.316L3036.66 509.411L3064.37 508.507C3063.82 491.676 3063.14 475.307 3062.31 459.399L3034.62 460.836ZM3036.66 509.411L3008.96 510.793C3009.76 526.836 3010.29 542.878 3010.56 558.919L3038.29 558.458L3066.02 557.997C3065.74 541.34 3065.18 524.684 3064.35 508.029L3036.66 509.411ZM3038.29 558.458L3010.56 558.928C3010.83 574.972 3011.1 590.545 3011.37 605.647L3039.1 605.147L3066.83 604.648C3066.56 589.567 3066.29 574.014 3066.02 557.988L3038.29 558.458ZM3039.1 605.147L3011.37 605.647C3011.64 620.604 3011.78 634.268 3011.78 646.648H3039.51H3067.24C3067.24 633.876 3067.11 619.873 3066.83 604.648L3039.1 605.147ZM3039.51 646.648H3011.78C3011.78 697.335 3008.68 736.996 3002.92 766.266L3030.13 771.625L3057.34 776.984C3064.08 742.744 3067.24 699.086 3067.24 646.648H3039.51ZM3030.13 771.625L3002.93 766.215C2997.32 794.395 2987.98 810.777 2977.88 819.727L2996.28 840.479L3014.67 861.232C3037.21 841.256 3050.43 811.735 3057.33 777.035L3030.13 771.625ZM2996.28 840.479L2977.71 819.881C2968.55 828.132 2952.87 834.44 2926.12 834.44V862.173V889.906C2960.83 889.906 2991.91 881.752 3014.85 861.078L2996.28 840.479ZM2926.12 862.173V834.44C2896.46 834.44 2878.44 824.762 2866.72 808.337L2844.14 824.444L2821.57 840.552C2845.74 874.432 2882.37 889.906 2926.12 889.906V862.173ZM2844.14 824.444L2866.72 808.337C2861.19 800.593 2856.58 791.455 2853.03 780.692L2826.69 789.367L2800.35 798.042C2805.47 813.579 2812.49 827.826 2821.57 840.552L2844.14 824.444ZM2802.51 787.367L2778.85 772.902C2770.32 786.853 2759.23 798.408 2745.31 807.72L2760.73 830.77L2776.15 853.819C2796.64 840.107 2813.4 822.728 2826.18 801.832L2802.51 787.367ZM2760.73 830.77L2745.31 807.72C2730.01 817.952 2713.79 826.085 2696.6 832.154L2705.84 858.305L2715.07 884.456C2736.66 876.834 2757.03 866.61 2776.15 853.819L2760.73 830.77ZM2705.84 858.305L2696.53 832.178C2681.44 837.552 2661.89 842.024 2637.45 845.283L2641.11 872.772L2644.78 900.262C2671.68 896.676 2695.27 891.503 2715.14 884.431L2705.84 858.305ZM2641.11 872.772L2637.08 845.335C2613.01 848.872 2588.83 850.639 2564.5 850.639V878.372V906.105C2591.53 906.105 2618.41 904.14 2645.14 900.21L2641.11 872.772ZM2564.5 878.372V850.639C2552.17 850.639 2539.98 850.487 2527.93 850.182L2527.23 877.906L2526.52 905.63C2539.05 905.947 2551.71 906.105 2564.5 906.105V878.372ZM2527.23 877.906V850.173C2515.87 850.173 2505.15 849.598 2495.06 848.476L2492 876.039L2488.93 903.602C2501.23 904.969 2514 905.639 2527.23 905.639V877.906ZM2492 876.039L2494.36 848.407C2484.08 847.529 2475.11 846.381 2467.36 845.002L2462.5 872.306L2457.64 899.609C2467.37 901.342 2478.06 902.682 2489.64 903.671L2492 876.039ZM2462.5 872.306L2467.92 845.107C2423.26 836.211 2396.8 817.705 2382.52 792.736L2358.45 806.502L2334.37 820.267C2358.88 863.125 2401.79 888.488 2457.08 899.504L2462.5 872.306ZM2358.45 806.502L2382.66 792.978C2366.69 764.395 2357.51 723.589 2357.51 668.359H2329.77H2302.04C2302.04 728.87 2311.97 780.16 2334.24 820.026L2358.45 806.502ZM2329.77 668.359L2357.51 668.359C2357.51 655.862 2357.9 642.208 2358.69 627.379L2331 625.891L2303.31 624.402C2302.47 640.064 2302.04 654.722 2302.04 668.359L2329.77 668.359ZM2331 625.891L2358.7 627.349C2359.5 612.086 2360.57 596.34 2361.92 580.11L2334.28 577.821L2306.64 575.533C2305.25 592.282 2304.14 608.582 2303.31 624.432L2331 625.891ZM2334.28 577.821L2361.88 580.513C2363.5 563.877 2365.26 547.398 2367.15 531.079L2339.6 527.885L2312.06 524.691C2310.12 541.351 2308.33 558.164 2306.68 575.129L2334.28 577.821ZM2339.6 527.885L2367.1 531.527C2368.19 523.254 2369.29 515.223 2370.38 507.434L2342.92 503.573L2315.46 499.712C2314.34 507.654 2313.23 515.83 2312.11 524.242L2339.6 527.885ZM2337.16 501.762L2312.74 488.622C2308.63 496.252 2303.32 503.875 2296.66 511.469L2317.5 529.764L2338.34 548.059C2347.51 537.607 2355.31 526.561 2361.58 514.901L2337.16 501.762ZM2317.5 529.764L2296.97 511.12C2281.48 528.177 2267.36 541.038 2254.63 550.165L2270.8 572.7L2286.96 595.235C2303.73 583.205 2320.75 567.441 2338.03 548.407L2317.5 529.764ZM2270.8 572.7L2254.63 550.165C2240.9 560.017 2225.18 569.87 2207.4 579.698L2220.82 603.969L2234.24 628.239C2253.6 617.533 2271.2 606.54 2286.96 595.235L2270.8 572.7ZM2220.82 603.969L2207.09 579.871C2195.3 586.587 2185.43 592.607 2177.72 597.874L2193.37 620.77L2209.02 643.665C2214.97 639.599 2223.4 634.418 2234.55 628.066L2220.82 603.969ZM2193.37 620.77L2178.02 597.672C2169.83 603.118 2162.36 609.393 2156.35 616.728L2177.81 634.304L2199.26 651.879C2200.9 649.881 2203.81 647.133 2208.72 643.867L2193.37 620.77ZM2177.81 634.304L2156.96 616.009C2151.08 622.709 2146.15 630.684 2141.9 639.246L2166.75 651.571L2191.59 663.897C2194.44 658.146 2196.88 654.611 2198.65 652.599L2177.81 634.304ZM2166.75 651.571L2141.35 640.426C2138.67 646.543 2136.57 653.976 2134.8 661.715L2161.83 667.905L2188.86 674.095C2190.37 667.523 2191.55 664.067 2192.14 662.717L2166.75 651.571ZM2161.83 667.905L2134.59 662.707C2133.17 670.161 2131.62 678.961 2129.96 689.069L2157.32 693.573L2184.69 698.077C2186.3 688.274 2187.76 679.961 2189.07 673.103L2161.83 667.905ZM2157.32 693.573L2129.98 688.928C2128.29 698.86 2126.62 709.688 2124.95 721.4L2152.41 725.309L2179.86 729.217C2181.47 717.905 2183.07 707.576 2184.66 698.218L2157.32 693.573ZM2152.41 725.309L2124.87 722.042C2123.49 733.64 2122.12 745.7 2120.74 758.219L2148.31 761.244L2175.88 764.269C2177.24 751.898 2178.59 740.001 2179.95 728.575L2152.41 725.309ZM2148.31 761.244L2120.77 757.985C2118.02 781.262 2110.55 797.413 2100.12 808.656L2120.45 827.515L2140.79 846.373C2160.95 824.637 2172.05 796.607 2175.85 764.504L2148.31 761.244ZM2120.45 827.515L2100.13 808.646C2090.92 818.568 2078.92 824.05 2061.46 824.05L2061.46 851.783L2061.46 879.516C2092.62 879.516 2119.95 868.819 2140.78 846.384L2120.45 827.515ZM2061.46 851.783V824.05C2034.76 824.05 2021.67 818.382 2015.78 813.037L1997.15 833.582L1978.52 854.127C1999.39 873.05 2029.18 879.516 2061.46 879.516V851.783ZM1997.15 833.582L2015.78 813.038C2008.23 806.193 2000.76 793.561 1996 771.306L1968.88 777.112L1941.76 782.918C1947.92 811.688 1959.3 836.703 1978.52 854.127L1997.15 833.582ZM1968.88 777.112L1996.15 772.073C1995.17 766.734 1994.29 761.043 1993.53 754.994L1966.01 758.444L1938.5 761.895C1939.38 768.913 1940.41 775.668 1941.61 782.152L1968.88 777.112ZM1966.01 758.444L1993.53 754.994C1992.73 748.567 1991.92 741.821 1991.11 734.756L1963.56 737.91L1936 741.065C1936.83 748.311 1937.66 755.254 1938.5 761.895L1966.01 758.444ZM1963.56 737.91L1991.11 734.756C1990.34 728.035 1989.69 720.973 1989.17 713.566L1961.51 715.509L1933.84 717.451C1934.42 725.6 1935.13 733.473 1936 741.065L1963.56 737.91ZM1961.51 715.509L1989.18 713.641C1988.63 705.527 1988.08 697.568 1987.53 689.764L1959.87 691.707L1932.2 693.65C1932.75 701.402 1933.29 709.312 1933.84 717.377L1961.51 715.509ZM1959.87 691.707L1987.51 689.501C1985.55 664.887 1982.86 642.932 1979.37 623.748L1952.09 628.703L1924.8 633.659C1927.87 650.566 1930.36 670.613 1932.22 693.913L1959.87 691.707ZM1952.09 628.703L1979.45 624.224C1975.73 601.484 1966.22 580.315 1946.84 567.073L1931.19 589.968L1915.54 612.863C1918.02 614.555 1922.43 619.21 1924.72 633.182L1952.09 628.703ZM1931.19 589.968L1946.48 566.83C1932.14 557.355 1918.2 549.07 1904.66 542.029L1891.87 566.633L1879.07 591.237C1890.66 597.263 1902.93 604.535 1915.9 613.106L1931.19 589.968ZM1891.87 566.633L1904.88 542.146C1893.23 535.949 1881.83 529.311 1870.7 522.229L1855.82 545.632L1840.94 569.034C1853.29 576.887 1865.92 584.249 1878.85 591.12L1891.87 566.633ZM1834.25 559.691L1806.79 563.602C1807.88 571.221 1808.41 578.758 1808.41 586.222H1836.15H1863.88C1863.88 576.088 1863.15 565.937 1861.7 555.78L1834.25 559.691ZM1836.15 586.222L1808.41 586.222C1808.41 612.843 1802.27 638.04 1789.8 662.159L1814.43 674.894L1839.07 687.628C1855.55 655.744 1863.88 621.826 1863.88 586.222L1836.15 586.222ZM1814.43 674.894L1789.86 662.046C1777.08 686.485 1759.03 709.431 1735.26 730.812L1753.81 751.432L1772.35 772.051C1800.47 746.763 1822.84 718.683 1839.01 687.741L1814.43 674.894ZM1753.81 751.432L1735.26 730.812C1711.44 752.233 1683.35 770.894 1650.77 786.676L1662.86 811.635L1674.95 836.593C1711.74 818.774 1744.28 797.3 1772.35 772.051L1753.81 751.432ZM1662.86 811.635L1650.69 786.714C1618.35 802.507 1582.82 814.904 1544.01 823.807L1550.21 850.838L1556.41 877.869C1598.98 868.104 1638.56 854.364 1675.03 836.556L1662.86 811.635ZM1550.21 850.838L1543.97 823.816C1505.71 832.65 1465.62 837.106 1423.62 837.106V864.839V892.572C1469.57 892.572 1513.86 887.693 1556.45 877.859L1550.21 850.838ZM1423.62 864.839L1423.62 837.106C1395.53 837.106 1376.01 833.001 1363.18 826.801L1351.12 851.771L1339.05 876.74C1362.27 887.963 1391.09 892.572 1423.62 892.572L1423.62 864.839ZM1351.12 851.771L1362.83 826.634C1350.43 820.853 1341.49 812.213 1335.28 800.004L1310.56 812.568L1285.84 825.133C1297.66 848.392 1315.75 865.887 1339.4 876.907L1351.12 851.771ZM1310.56 812.568L1335.52 800.481C1328.54 786.079 1322.97 765.967 1319.65 739.151L1292.12 742.564L1264.6 745.978C1268.38 776.41 1275.1 802.967 1285.6 824.656L1310.56 812.568ZM1292.12 742.564L1319.67 739.31C1317.85 723.952 1316.53 706.774 1315.74 687.736L1288.03 688.895L1260.32 690.053C1261.16 710.218 1262.58 728.82 1264.58 745.819L1292.12 742.564ZM1288.03 688.895L1315.74 687.736C1314.94 668.585 1314.53 647.508 1314.53 624.49H1286.8H1259.07C1259.07 648.142 1259.48 670.002 1260.32 690.053L1288.03 688.895ZM1286.8 624.49H1314.53C1314.53 582.901 1315.48 544.348 1317.36 508.817L1289.67 507.35L1261.97 505.883C1260.03 542.533 1259.07 582.075 1259.07 624.49H1286.8ZM1289.67 507.35L1317.35 509.011C1319.47 473.718 1323.55 442.858 1329.44 416.284L1302.37 410.277L1275.29 404.271C1268.63 434.322 1264.24 468.178 1261.98 505.688L1289.67 507.35ZM1302.37 410.277L1329.38 416.554C1338.41 377.696 1353.03 349.809 1371.72 330.766L1351.93 311.338L1332.14 291.91C1304.41 320.159 1285.99 358.232 1275.35 404.001L1302.37 410.277ZM1351.93 311.338L1371.85 330.637C1388.24 313.723 1413.99 303.135 1453.94 303.135L1453.94 275.402L1453.94 247.67C1404.31 247.67 1362.06 261.039 1332.02 292.039L1351.93 311.338ZM1453.94 275.402V303.135C1492.92 303.135 1529.87 308.933 1564.92 320.423L1573.56 294.07L1582.2 267.718C1541.32 254.317 1498.52 247.67 1453.94 247.67V275.402ZM1573.56 294.07L1565.17 320.504C1601.07 331.897 1633.82 347.457 1663.53 367.13L1678.84 344.007L1694.15 320.883C1659.96 298.243 1622.52 280.512 1581.95 267.637L1573.56 294.07ZM1678.84 344.007L1663.69 367.234C1693.68 386.8 1719.45 408.974 1741.16 433.706L1762 415.411L1782.84 397.116C1757.58 368.333 1727.91 342.905 1693.99 320.78L1678.84 344.007ZM1772.91 410.825L1800.61 409.43C1800.46 406.5 1800.39 403.52 1800.39 400.489H1772.66H1744.92C1744.92 404.43 1745.02 408.34 1745.22 412.219L1772.91 410.825ZM1772.66 400.489L1800.39 400.489C1800.39 379.703 1804.65 363.99 1811.69 352.053L1787.81 337.952L1763.93 323.851C1750.77 346.138 1744.92 372.117 1744.92 400.489L1772.66 400.489ZM1787.81 337.952L1811.8 351.865C1819.45 338.681 1829.27 329.226 1841.41 322.758L1828.37 298.283L1815.33 273.808C1793.6 285.386 1776.39 302.377 1763.82 324.039L1787.81 337.952ZM1828.37 298.283L1841.76 322.57C1854.29 315.662 1868.47 312.015 1884.9 312.015V284.282V256.549C1859.82 256.549 1836.31 262.237 1814.98 273.996L1828.37 298.283ZM1884.9 284.282V312.015C1896.61 312.015 1906.17 314.506 1914.24 318.902L1927.51 294.55L1940.78 270.197C1923.72 260.904 1904.87 256.549 1884.9 256.549V284.282ZM1927.51 294.55L1914.71 319.154C1921.17 322.515 1929.79 330.266 1939.58 346.041L1963.15 331.419L1986.71 316.797C1974.11 296.481 1958.97 279.652 1940.3 269.946L1927.51 294.55ZM1963.15 331.419L1938.83 344.758C1944.55 355.181 1950.81 365.872 1957.6 376.828L1981.17 362.221L2004.75 347.614C1998.42 337.413 1992.67 327.569 1987.46 318.08L1963.15 331.419ZM1981.17 362.221L1957.8 377.143C1964.62 387.838 1971.49 397.945 1978.4 407.455L2000.83 391.155L2023.27 374.856C2017.07 366.32 2010.83 357.138 2004.55 347.298L1981.17 362.221ZM2000.83 391.155L1978.14 407.093C1985.5 417.582 1993.45 427.188 2001.99 435.844L2021.73 416.357L2041.46 396.871C2035.26 390.593 2029.27 383.397 2023.53 375.218L2000.83 391.155ZM2021.73 416.357L2001.99 435.844C2011.09 445.05 2021.09 452.746 2032.06 458.579L2045.08 434.092L2058.1 409.605C2052.68 406.727 2047.12 402.599 2041.46 396.871L2021.73 416.357ZM2045.08 434.092L2032.8 458.959C2044.76 464.862 2057.56 467.891 2070.89 467.891V440.158V412.425C2066.19 412.425 2061.78 411.41 2057.35 409.224L2045.08 434.092ZM2070.89 440.158L2070.89 467.891C2087.26 467.891 2102.11 462.157 2114.94 452.569L2098.33 430.357L2081.73 408.146C2077.07 411.625 2073.63 412.425 2070.89 412.425L2070.89 440.158ZM2098.33 430.357L2114.94 452.569C2125.53 444.648 2135.36 435.234 2144.47 424.5L2123.32 406.557L2102.18 388.614C2095.44 396.547 2088.61 403 2081.73 408.146L2098.33 430.357ZM2123.32 406.557L2144.64 424.289C2155.34 411.426 2165.24 397.612 2174.36 382.874L2150.77 368.287L2127.18 353.7C2119.36 366.341 2110.97 378.041 2102 388.825L2123.32 406.557ZM2150.77 368.287L2174.29 382.972C2182.62 369.64 2190.12 359.012 2196.8 350.86L2175.35 333.285L2153.9 315.71C2145.28 326.226 2136.4 338.933 2127.24 353.602L2150.77 368.287ZM2175.35 333.285L2195.98 351.817C2206.71 339.867 2216.57 331.56 2225.42 326.166L2210.99 302.483L2196.56 278.801C2181.92 287.718 2168.02 299.946 2154.72 314.754L2175.35 333.285ZM2210.99 302.483L2225.18 326.311C2232.75 321.803 2241.06 319.482 2250.72 319.482L2250.72 291.749L2250.72 264.016C2231.44 264.016 2213.26 268.852 2196.8 278.656L2210.99 302.483ZM2250.72 291.749V319.482C2265.11 319.482 2277.73 323.56 2289.39 331.973L2305.62 309.483L2321.84 286.993C2300.73 271.762 2276.76 264.016 2250.72 264.016V291.749ZM2305.62 309.483L2289.39 331.973C2301.98 341.057 2312.1 352.946 2319.77 368.161L2344.54 355.687L2369.3 343.212C2357.85 320.469 2342.03 301.556 2321.84 286.994L2305.62 309.483ZM2379.7 356.921L2404.83 368.657C2410.44 356.651 2416.58 346.064 2423.2 336.8L2400.64 320.672L2378.08 304.543C2369.28 316.861 2361.46 330.439 2354.57 345.184L2379.7 356.921ZM2400.64 320.672L2423.2 336.8C2439.9 313.448 2460.12 303.135 2485.85 303.135V275.402V247.67C2441.12 247.67 2404.54 267.537 2378.08 304.543L2400.64 320.672ZM1517.84 487.749L1517.84 460.016C1505 460.016 1492.58 464.422 1482.79 474.082L1502.28 493.816L1521.76 513.551C1521.22 514.092 1520.36 514.697 1519.31 515.105C1518.31 515.495 1517.71 515.482 1517.84 515.482L1517.84 487.749ZM1502.28 493.816L1482.12 474.766C1473.96 483.406 1469.32 494.324 1466.49 504.785L1493.27 512.017L1520.04 519.248C1520.76 516.56 1521.48 514.786 1522.01 513.707C1522.54 512.629 1522.77 512.51 1522.43 512.867L1502.28 493.816ZM1493.27 512.017L1466.41 505.084C1464.64 511.934 1463.36 519.475 1462.44 527.53L1489.99 530.685L1517.54 533.839C1518.26 527.582 1519.16 522.678 1520.12 518.949L1493.27 512.017ZM1489.99 530.685L1462.34 528.574C1461.73 536.561 1461.44 545.213 1461.44 554.486H1489.17H1516.9C1516.9 546.336 1517.16 539.12 1517.64 532.795L1489.99 530.685ZM1489.17 554.486H1461.44C1461.44 567.921 1461.72 580.094 1462.29 590.962L1489.99 589.488L1517.68 588.015C1517.17 578.349 1516.9 567.187 1516.9 554.486H1489.17ZM1489.99 589.488L1462.29 590.962C1462.88 602.016 1463.94 612.051 1465.62 620.821L1492.86 615.623L1520.1 610.425C1519.04 604.883 1518.19 597.495 1517.68 588.015L1489.99 589.488ZM1492.86 615.623L1465.69 621.188C1468.05 632.704 1472.23 644.752 1480.26 654.385C1489.21 665.117 1501.78 671.358 1516.21 671.358L1516.21 643.625L1516.21 615.892C1517.05 615.892 1518.5 616.087 1520.1 616.854C1521.68 617.608 1522.57 618.512 1522.86 618.864C1523.09 619.134 1522.72 618.78 1522.09 617.255C1521.46 615.739 1520.71 613.415 1520.03 610.058L1492.86 615.623ZM1516.21 643.625V671.358C1531.93 671.358 1546.84 669.57 1560.67 665.63L1553.08 638.958L1545.48 612.286C1537.46 614.568 1527.79 615.892 1516.21 615.892V643.625ZM1553.08 638.958L1561.18 665.48C1574.31 661.468 1586.42 656.183 1597.26 649.411L1582.57 625.891L1567.88 602.371C1561.78 606.177 1554.24 609.604 1544.97 612.436L1553.08 638.958ZM1582.57 625.891L1597.87 649.021C1608.27 642.142 1617.46 634.187 1625.13 625.034L1603.87 607.223L1582.61 589.412C1578.81 593.948 1573.8 598.439 1567.27 602.76L1582.57 625.891ZM1603.87 607.223L1625.11 625.055C1632.41 616.361 1638.5 607.142 1642.79 597.367L1617.39 586.222L1592 575.076C1590.28 578.991 1587.35 583.773 1582.63 589.39L1603.87 607.223ZM1617.39 586.222L1642.96 596.956C1647.05 587.216 1649.63 576.853 1649.63 566.153H1621.9H1594.16C1594.16 567.899 1593.74 570.916 1591.82 575.487L1617.39 586.222ZM1621.9 566.153L1649.63 566.153C1649.63 554.903 1646.8 544.122 1642.2 534.072L1616.98 545.619L1591.77 557.167C1593.72 561.428 1594.16 564.336 1594.16 566.154L1621.9 566.153ZM1616.98 545.619L1642.55 534.884C1638.09 524.263 1631.51 514.616 1623.49 505.867L1603.05 524.618L1582.62 543.369C1587.15 548.311 1589.86 552.664 1591.41 556.354L1616.98 545.619ZM1603.05 524.618L1623.9 506.323C1615.94 497.262 1606.58 489.483 1596.04 482.897L1581.34 506.417L1566.65 529.937C1573.04 533.929 1578.15 538.285 1582.21 542.913L1603.05 524.618ZM1581.34 506.417L1596.64 483.287C1585.86 476.155 1573.97 470.599 1561.15 466.48L1552.67 492.883L1544.18 519.286C1552.67 522.012 1559.89 525.478 1566.04 529.547L1581.34 506.417ZM1552.67 492.883L1561.15 466.48C1547.44 462.075 1532.94 460.016 1517.84 460.016V487.749V515.482C1527.88 515.482 1536.59 516.845 1544.18 519.286L1552.67 492.883ZM1762 415.411L1741.16 433.706C1752.91 447.093 1769.58 446.515 1779.71 442.235C1789.79 437.973 1801.48 426.704 1800.61 409.43L1772.91 410.825L1745.22 412.219C1744.62 400.382 1752.65 393.453 1758.11 391.148C1763.6 388.824 1774.68 387.821 1782.84 397.116L1762 415.411ZM1855.82 545.632L1871.05 522.457C1854.23 511.403 1836.02 516.842 1825.99 523.413C1815.95 529.993 1804.03 544.222 1806.79 563.602L1834.25 559.691L1861.7 555.78C1862.98 564.778 1857.47 569.099 1856.39 569.805C1855.33 570.501 1848.64 574.102 1840.59 568.807L1855.82 545.632ZM2344.54 355.687L2319.91 368.443C2325.67 379.552 2335.79 384.562 2341.39 386.718C2347.91 389.229 2354.83 390.389 2361.06 390.657C2367.24 390.923 2374.45 390.385 2381.42 388.187C2387.5 386.27 2398.93 381.281 2404.83 368.657L2379.7 356.921L2354.57 345.184C2356.53 340.995 2359.31 338.467 2361.16 337.158C2362.95 335.887 2364.34 335.414 2364.74 335.288C2365.44 335.069 2364.97 335.308 2363.45 335.243C2361.98 335.18 2361.18 334.902 2361.33 334.96C2361.44 335.004 2362.35 335.354 2363.65 336.312C2364.92 337.251 2367.29 339.312 2369.16 342.93L2344.54 355.687ZM2826.69 789.367L2853.03 780.692C2850.46 772.866 2845.4 768.025 2842.02 765.47C2838.53 762.828 2835.02 761.222 2832.41 760.234C2827.17 758.251 2821.75 757.338 2817.23 756.983C2812.67 756.625 2807.29 756.698 2801.96 757.741C2799.31 758.261 2795.8 759.187 2792.15 760.974C2788.7 762.658 2783.12 766.086 2779.02 772.635L2802.51 787.367L2826.01 802.099C2822.64 807.475 2818.32 809.919 2816.51 810.803C2814.49 811.789 2813.01 812.098 2812.62 812.174C2811.83 812.329 2811.98 812.207 2812.89 812.278C2813.83 812.352 2813.79 812.491 2812.78 812.11C2812.29 811.924 2810.61 811.257 2808.53 809.683C2806.57 808.195 2802.5 804.551 2800.35 798.042L2826.69 789.367ZM2342.92 503.573L2370.38 507.434C2373.21 487.329 2357.51 476.811 2348.99 474.155C2340.48 471.498 2322.56 471.273 2313.03 488.096L2337.16 501.762L2361.29 515.428C2353.21 529.708 2338.37 528.943 2332.47 527.103C2326.58 525.265 2313.04 516.925 2315.46 499.712L2342.92 503.573ZM2813.98 689.828L2788.03 699.593C2791.71 709.38 2799.38 714.343 2804.9 716.427C2810.26 718.449 2815.37 718.609 2819.39 718.082C2823.34 717.563 2828.57 716.068 2833.54 712.303C2838.9 708.237 2844.96 700.46 2844.96 689.391H2817.22H2789.49C2789.49 678.994 2795.2 671.764 2800.03 668.103C2804.46 664.742 2808.97 663.508 2812.17 663.088C2815.44 662.66 2819.77 662.755 2824.48 664.532C2829.35 666.37 2836.5 670.905 2839.94 680.064L2813.98 689.828Z" fill="#191A24" mask="url(#path-6-outside-2_6588_6244)"/>
<mask id="path-8-inside-3_6588_6244" fill="white">
<path d="M2485.85 275.402C2510.43 275.402 2528.59 280.691 2540.34 291.27C2552.08 301.537 2559.73 316.005 2563.28 334.673C2567.1 353.341 2569.01 375.12 2569.01 400.01C2569.01 408.099 2568.87 416.345 2568.6 424.745V476.548C2568.87 485.259 2569.01 493.815 2569.01 502.216C2569.28 510.616 2569.56 518.862 2569.83 526.951C2570.38 535.04 2571.06 542.818 2571.88 550.285C2572.97 562.419 2574.75 573.309 2577.21 582.954C2579.94 592.288 2583.62 600.222 2588.27 606.756C2593.18 613.29 2599.19 618.268 2606.29 621.69C2613.66 625.113 2622.54 627.29 2632.92 628.224C2656.68 630.713 2679.07 633.824 2700.1 637.558C2721.13 641.291 2738.06 644.87 2750.9 648.292C2759.36 649.536 2768.24 651.87 2777.53 655.292C2786.81 658.403 2794.46 662.603 2800.47 667.893C2806.47 673.804 2810.98 681.116 2813.99 689.827C2814.46 691.085 2817.22 690.734 2817.22 689.39V672.587C2817.22 654.98 2817.5 637.06 2818.04 618.824C2818.58 600.274 2819.13 581.567 2819.67 562.703C2820.49 543.839 2821.44 525.132 2822.53 506.582C2823.89 487.718 2825.38 469.639 2827.01 452.347C2828.92 434.74 2831.09 417.919 2833.54 401.885C2839.79 363.527 2850.67 334.917 2866.17 316.053C2881.67 297.189 2906.14 287.756 2939.58 287.756C2966.5 287.756 2986.9 296.559 3000.76 314.166C3014.63 331.773 3023.6 353.938 3027.68 380.662C3029.04 391.037 3030.27 403.143 3031.35 416.977C3032.71 430.496 3033.8 445.116 3034.62 460.836C3035.43 476.556 3036.11 492.748 3036.66 509.411C3037.47 525.76 3038.02 542.109 3038.29 558.458C3038.56 574.493 3038.83 590.056 3039.1 605.147C3039.37 620.239 3039.51 634.072 3039.51 646.648C3039.51 698.211 3036.38 739.87 3030.13 771.625C3023.88 803.065 3012.59 826.017 2996.28 840.479C2980.23 854.942 2956.85 862.173 2926.12 862.173C2889.42 862.173 2862.09 849.597 2844.14 824.444C2836.84 814.209 2831.02 802.516 2826.69 789.366C2824.96 784.099 2805.46 782.668 2802.51 787.366C2791.86 804.789 2777.94 819.258 2760.73 830.77C2743.52 842.281 2725.23 851.46 2705.84 858.305C2688.36 864.527 2666.78 869.349 2641.11 872.771C2615.71 876.505 2590.18 878.372 2564.51 878.372C2551.94 878.372 2539.52 878.216 2527.23 877.905C2514.94 877.905 2503.19 877.284 2492 876.039C2481.07 875.106 2471.24 873.86 2462.5 872.305C2412.52 862.348 2377.84 840.414 2358.45 806.501C2339.33 772.277 2329.77 726.229 2329.77 668.359C2329.77 655.292 2330.18 641.136 2331 625.891C2331.82 610.334 2332.91 594.31 2334.28 577.82C2335.92 561.02 2337.69 544.374 2339.61 527.885C2340.71 519.542 2341.82 511.439 2342.92 503.574C2343.33 500.681 2338.6 499.221 2337.16 501.763C2331.97 511.408 2325.42 520.742 2317.5 529.765C2301.11 547.81 2285.54 562.122 2270.8 572.7C2256.05 583.279 2239.39 593.702 2220.82 603.969C2209.35 610.502 2200.2 616.104 2193.37 620.771C2186.82 625.126 2181.63 629.638 2177.81 634.305C2173.98 638.66 2170.3 644.416 2166.75 651.572C2165.11 655.306 2163.47 660.75 2161.83 667.906C2160.46 675.062 2158.96 683.618 2157.32 693.574C2155.68 703.219 2154.05 713.798 2152.41 725.31C2151.04 736.821 2149.68 748.8 2148.31 761.245C2145.03 788.936 2135.75 811.026 2120.45 827.516C2105.43 843.694 2085.77 851.784 2061.46 851.784C2031.97 851.784 2010.53 845.717 1997.15 833.583C1983.77 821.449 1974.34 802.626 1968.88 777.113C1967.79 771.202 1966.83 764.979 1966.01 758.445C1965.19 751.912 1964.38 745.066 1963.56 737.91C1962.74 730.754 1962.05 723.287 1961.51 715.509C1960.96 707.42 1960.42 699.486 1959.87 691.708C1957.96 667.751 1955.36 646.75 1952.09 628.704C1949.08 610.348 1942.12 597.436 1931.19 589.969C1917.54 580.946 1904.43 573.168 1891.87 566.634C1879.58 560.1 1867.56 553.1 1855.82 545.633C1847.05 539.874 1832.77 549.311 1834.25 559.692C1835.51 568.58 1836.15 577.423 1836.15 586.221C1836.15 617.334 1828.91 646.892 1814.43 674.894C1799.96 702.584 1779.75 728.097 1753.81 751.432C1727.86 774.766 1697.55 794.834 1662.86 811.635C1628.45 828.436 1590.9 841.503 1550.21 850.837C1509.79 860.171 1467.59 864.838 1423.62 864.838C1393.31 864.838 1369.14 860.482 1351.12 851.771C1333.09 843.37 1319.57 830.303 1310.56 812.568C1301.82 794.523 1295.68 771.188 1292.12 742.564C1290.21 726.386 1288.85 708.496 1288.03 688.895C1287.21 669.293 1286.8 647.825 1286.8 624.49C1286.8 582.488 1287.76 543.441 1289.67 507.35C1291.85 470.948 1296.08 438.59 1302.37 410.277C1312.2 367.964 1328.72 334.984 1351.93 311.338C1375.15 287.381 1409.15 275.402 1453.94 275.402C1495.72 275.402 1535.6 281.625 1573.56 294.07C1611.79 306.204 1646.89 322.85 1678.84 344.007C1710.79 364.853 1738.51 388.654 1762 415.411C1765.59 419.503 1773.19 416.262 1772.91 410.825C1772.74 407.421 1772.66 403.976 1772.66 400.49C1772.66 375.911 1777.71 355.065 1787.81 337.953C1797.92 320.53 1811.44 307.307 1828.37 298.284C1845.3 288.95 1864.15 284.283 1884.9 284.283C1900.74 284.283 1914.94 287.706 1927.51 294.551C1940.07 301.085 1951.95 313.374 1963.15 331.419C1968.61 341.375 1974.62 351.643 1981.17 362.222C1987.73 372.489 1994.28 382.134 2000.83 391.156C2007.39 400.49 2014.35 408.89 2021.73 416.357C2029.1 423.824 2036.88 429.736 2045.08 434.092C2053.27 438.136 2061.87 440.159 2070.89 440.159C2080.44 440.159 2089.59 436.892 2098.33 430.358C2107.07 423.825 2115.4 415.891 2123.32 406.558C2133.15 394.735 2142.3 381.978 2150.77 368.288C2159.51 354.287 2167.7 342.62 2175.35 333.286C2187.36 319.908 2199.24 309.64 2210.99 302.484C2223 295.328 2236.25 291.75 2250.72 291.75C2270.93 291.75 2289.23 297.661 2305.62 309.484C2322 321.307 2334.98 336.709 2344.54 355.688C2349.08 364.46 2375.52 365.873 2379.7 356.921C2385.95 343.546 2392.93 331.462 2400.64 320.672C2422.22 290.492 2450.62 275.402 2485.85 275.402ZM1517.84 487.748C1511.56 487.748 1506.37 489.771 1502.28 493.815C1498.45 497.86 1495.45 503.927 1493.27 512.017C1491.9 517.306 1490.81 523.529 1489.99 530.685C1489.44 537.841 1489.17 545.775 1489.17 554.486C1489.17 567.554 1489.44 579.221 1489.99 589.488C1490.53 599.755 1491.49 608.467 1492.86 615.623C1496.68 634.291 1504.46 643.625 1516.21 643.625C1529.86 643.625 1542.15 642.069 1553.08 638.958C1564.27 635.536 1574.1 631.18 1582.57 625.891C1591.04 620.29 1598.14 614.067 1603.87 607.223C1609.88 600.067 1614.39 593.066 1617.39 586.221C1620.39 579.065 1621.9 572.376 1621.9 566.153C1621.9 559.62 1620.26 552.775 1616.98 545.619C1613.98 538.463 1609.33 531.462 1603.05 524.617C1597.04 517.773 1589.81 511.705 1581.34 506.416C1572.88 500.816 1563.32 496.304 1552.67 492.882C1542.01 489.459 1530.41 487.748 1517.84 487.748Z"/>
</mask>
<path d="M2485.85 275.402V247.67V247.67V275.402ZM2540.34 291.27L2521.77 311.875L2521.93 312.013L2522.08 312.148L2540.34 291.27ZM2563.28 334.673L2536.03 339.854L2536.07 340.046L2536.11 340.237L2563.28 334.673ZM2569.01 400.01H2596.74V400.01L2569.01 400.01ZM2568.6 424.745L2540.88 423.844L2540.87 424.294V424.745H2568.6ZM2568.6 476.548H2540.87V476.982L2540.88 477.417L2568.6 476.548ZM2569.01 502.216L2541.28 502.216V502.667L2541.29 503.117L2569.01 502.216ZM2569.83 526.951L2542.11 527.887L2542.13 528.354L2542.16 528.819L2569.83 526.951ZM2571.88 550.285L2599.5 547.798L2599.48 547.529L2599.45 547.26L2571.88 550.285ZM2577.21 582.954L2550.33 589.803L2550.45 590.275L2550.59 590.742L2577.21 582.954ZM2588.27 606.756L2565.66 622.82L2565.88 623.128L2566.1 623.429L2588.27 606.756ZM2606.29 621.69L2594.25 646.673L2594.43 646.761L2594.61 646.846L2606.29 621.69ZM2632.92 628.224L2635.81 600.642L2635.6 600.621L2635.4 600.602L2632.92 628.224ZM2700.1 637.558L2704.95 610.252V610.252L2700.1 637.558ZM2750.9 648.292L2743.75 675.089L2745.29 675.499L2746.86 675.73L2750.9 648.292ZM2777.53 655.292L2767.93 681.314L2768.32 681.457L2768.71 681.588L2777.53 655.292ZM2800.47 667.893L2819.92 648.124L2819.37 647.585L2818.79 647.077L2800.47 667.893ZM2813.99 689.827L2787.77 698.868L2787.89 699.232L2788.03 699.592L2813.99 689.827ZM2817.22 672.587H2789.49V672.587H2817.22ZM2818.04 618.824L2845.76 619.651L2845.76 619.637L2818.04 618.824ZM2819.67 562.703L2791.96 561.505L2791.96 561.704L2791.95 561.904L2819.67 562.703ZM2822.53 506.582L2794.87 504.589L2794.85 504.774L2794.84 504.959L2822.53 506.582ZM2827.01 452.347L2799.44 449.366L2799.42 449.554L2799.4 449.742L2827.01 452.347ZM2833.54 401.885L2806.17 397.422L2806.14 397.561L2806.12 397.701L2833.54 401.885ZM2866.17 316.053L2887.6 333.658V333.658L2866.17 316.053ZM2939.58 287.756V260.023H2939.58L2939.58 287.756ZM3000.76 314.166L3022.55 297.006L3022.55 297.006L3000.76 314.166ZM3027.68 380.662L3055.18 377.059L3055.14 376.768L3055.1 376.478L3027.68 380.662ZM3031.35 416.977L3003.71 419.15L3003.73 419.451L3003.76 419.751L3031.35 416.977ZM3034.62 460.836L3062.31 459.399V459.399L3034.62 460.836ZM3036.66 509.411L3008.94 510.316L3008.95 510.555L3008.96 510.793L3036.66 509.411ZM3038.29 558.458L3010.56 558.919L3010.56 558.928L3038.29 558.458ZM3039.1 605.147L3011.37 605.647L3039.1 605.147ZM3039.51 646.648H3067.24V646.648H3039.51ZM3030.13 771.625L3057.33 777.035L3057.33 777.01L3057.34 776.984L3030.13 771.625ZM2996.28 840.479L2977.88 819.727L2977.79 819.804L2977.71 819.881L2996.28 840.479ZM2926.12 862.173V889.906V889.906V862.173ZM2844.14 824.444L2821.57 840.552V840.552L2844.14 824.444ZM2802.51 787.366L2779.02 772.634L2778.93 772.768L2778.85 772.902L2802.51 787.366ZM2760.73 830.77L2776.15 853.819V853.819L2760.73 830.77ZM2705.84 858.305L2696.6 832.154L2696.57 832.166L2696.53 832.178L2705.84 858.305ZM2641.11 872.771L2637.45 845.282L2637.26 845.307L2637.08 845.334L2641.11 872.771ZM2564.51 878.372V906.105V906.105V878.372ZM2527.23 877.905L2527.93 850.181L2527.58 850.172H2527.23V877.905ZM2492 876.039L2495.06 848.476L2494.71 848.437L2494.36 848.407L2492 876.039ZM2462.5 872.305L2457.08 899.503L2457.36 899.558L2457.64 899.608L2462.5 872.305ZM2358.45 806.501L2334.24 820.025L2334.31 820.146L2334.37 820.266L2358.45 806.501ZM2329.77 668.359H2302.04V668.359H2329.77ZM2331 625.891L2358.69 627.379L2358.7 627.364L2358.7 627.349L2331 625.891ZM2334.28 577.82L2306.68 575.128L2306.66 575.33L2306.64 575.532L2334.28 577.82ZM2339.61 527.885L2312.11 524.242L2312.08 524.466L2312.06 524.691L2339.61 527.885ZM2337.16 501.763L2313.03 488.097L2312.88 488.358L2312.74 488.623L2337.16 501.763ZM2317.5 529.765L2338.03 548.408L2338.19 548.235L2338.34 548.06L2317.5 529.765ZM2270.8 572.7L2286.96 595.235H2286.96L2270.8 572.7ZM2220.82 603.969L2207.4 579.698L2207.25 579.784L2207.09 579.871L2220.82 603.969ZM2193.37 620.771L2208.72 643.868L2208.87 643.768L2209.02 643.666L2193.37 620.771ZM2177.81 634.305L2198.65 652.6L2198.96 652.245L2199.26 651.88L2177.81 634.305ZM2166.75 651.572L2141.9 639.247L2141.61 639.83L2141.35 640.427L2166.75 651.572ZM2161.83 667.906L2134.8 661.716L2134.68 662.21L2134.59 662.708L2161.83 667.906ZM2157.32 693.574L2184.66 698.219L2184.68 698.149L2184.69 698.078L2157.32 693.574ZM2152.41 725.31L2124.95 721.401L2124.91 721.722L2124.87 722.043L2152.41 725.31ZM2148.31 761.245L2175.85 764.505L2175.86 764.387L2175.88 764.27L2148.31 761.245ZM2120.45 827.516L2140.78 846.385L2140.78 846.38L2140.79 846.374L2120.45 827.516ZM2061.46 851.784V879.517H2061.46L2061.46 851.784ZM1997.15 833.583L1978.52 854.128L1978.52 854.128L1997.15 833.583ZM1968.88 777.113L1941.61 782.153L1941.68 782.537L1941.76 782.919L1968.88 777.113ZM1966.01 758.445L1938.5 761.896V761.896L1966.01 758.445ZM1963.56 737.91L1991.11 734.756V734.756L1963.56 737.91ZM1961.51 715.509L1933.84 717.377L1933.84 717.414L1933.84 717.451L1961.51 715.509ZM1959.87 691.708L1987.53 689.765L1987.52 689.634L1987.51 689.502L1959.87 691.708ZM1952.09 628.704L1924.72 633.183L1924.76 633.422L1924.8 633.66L1952.09 628.704ZM1931.19 589.969L1946.84 567.074L1946.66 566.951L1946.48 566.831L1931.19 589.969ZM1891.87 566.634L1878.85 591.121L1878.96 591.18L1879.07 591.238L1891.87 566.634ZM1855.82 545.633L1840.59 568.808L1840.76 568.923L1840.94 569.035L1855.82 545.633ZM1836.15 586.221H1863.88V586.221L1836.15 586.221ZM1814.43 674.894L1839.01 687.741L1839.04 687.685L1839.07 687.628L1814.43 674.894ZM1753.81 751.432L1772.35 772.051L1772.35 772.051L1753.81 751.432ZM1662.86 811.635L1650.77 786.676L1650.73 786.695L1650.69 786.714L1662.86 811.635ZM1550.21 850.837L1544.01 823.806L1543.99 823.811L1543.97 823.815L1550.21 850.837ZM1423.62 864.838L1423.62 892.571H1423.62V864.838ZM1351.12 851.771L1363.18 826.801L1363.01 826.716L1362.83 826.634L1351.12 851.771ZM1310.56 812.568L1285.6 824.656L1285.72 824.895L1285.84 825.133L1310.56 812.568ZM1292.12 742.564L1264.58 745.819L1264.59 745.898L1264.6 745.978L1292.12 742.564ZM1288.03 688.895L1260.32 690.053V690.053L1288.03 688.895ZM1286.8 624.49H1259.07V624.49H1286.8ZM1289.67 507.35L1261.98 505.688L1261.98 505.785L1261.97 505.883L1289.67 507.35ZM1302.37 410.277L1275.35 404.001L1275.32 404.136L1275.29 404.271L1302.37 410.277ZM1351.93 311.338L1371.72 330.766L1371.79 330.702L1371.85 330.637L1351.93 311.338ZM1453.94 275.402V247.67H1453.94L1453.94 275.402ZM1573.56 294.07L1564.92 320.423L1565.04 320.464L1565.17 320.504L1573.56 294.07ZM1678.84 344.007L1663.53 367.13L1663.61 367.182L1663.69 367.234L1678.84 344.007ZM1762 415.411L1782.84 397.116L1762 415.411ZM1772.66 400.49H1744.92V400.49H1772.66ZM1787.81 337.953L1811.69 352.054L1811.75 351.961L1811.8 351.866L1787.81 337.953ZM1828.37 298.284L1841.41 322.759L1841.59 322.666L1841.76 322.571L1828.37 298.284ZM1884.9 284.283V256.55H1884.9L1884.9 284.283ZM1927.51 294.551L1914.24 318.903L1914.47 319.031L1914.71 319.155L1927.51 294.551ZM1963.15 331.419L1987.46 318.08L1987.1 317.428L1986.71 316.797L1963.15 331.419ZM1981.17 362.222L1957.6 376.828L1957.69 376.987L1957.8 377.144L1981.17 362.222ZM2000.83 391.156L2023.53 375.219L2023.4 375.037L2023.27 374.857L2000.83 391.156ZM2021.73 416.357L2041.46 396.871V396.871L2021.73 416.357ZM2045.08 434.092L2032.06 458.579L2032.43 458.775L2032.8 458.959L2045.08 434.092ZM2070.89 440.159V467.892V467.892V440.159ZM2098.33 430.358L2114.94 452.57L2114.94 452.57L2098.33 430.358ZM2123.32 406.558L2144.47 424.501L2144.56 424.396L2144.64 424.29L2123.32 406.558ZM2150.77 368.288L2127.24 353.603L2127.21 353.652L2127.18 353.701L2150.77 368.288ZM2175.35 333.286L2154.72 314.755L2154.29 315.223L2153.9 315.711L2175.35 333.286ZM2210.99 302.484L2196.8 278.657L2196.68 278.729L2196.56 278.802L2210.99 302.484ZM2250.72 291.75V264.017H2250.72L2250.72 291.75ZM2305.62 309.484L2321.85 286.995L2321.84 286.994L2305.62 309.484ZM2344.54 355.688L2319.77 368.162L2319.84 368.303L2319.91 368.444L2344.54 355.688ZM2400.64 320.672L2378.08 304.543V304.544L2400.64 320.672ZM1517.84 487.748V460.015H1517.84L1517.84 487.748ZM1502.28 493.815L1482.79 474.081L1482.45 474.417L1482.12 474.764L1502.28 493.815ZM1493.27 512.017L1466.49 504.785L1466.45 504.935L1466.41 505.084L1493.27 512.017ZM1489.99 530.685L1462.44 527.53L1462.38 528.051L1462.34 528.574L1489.99 530.685ZM1489.17 554.486H1461.44V554.486H1489.17ZM1489.99 589.488L1462.29 590.962V590.962L1489.99 589.488ZM1492.86 615.623L1465.62 620.821L1465.65 621.005L1465.69 621.188L1492.86 615.623ZM1516.21 643.625L1516.21 671.358H1516.21V643.625ZM1553.08 638.958L1560.67 665.63L1560.93 665.557L1561.18 665.48L1553.08 638.958ZM1582.57 625.891L1597.26 649.411L1597.57 649.22L1597.87 649.021L1582.57 625.891ZM1603.87 607.223L1582.63 589.39L1582.62 589.401L1582.61 589.411L1603.87 607.223ZM1617.39 586.221L1642.79 597.366L1642.88 597.161L1642.96 596.955L1617.39 586.221ZM1621.9 566.153L1649.63 566.153V566.153H1621.9ZM1616.98 545.619L1591.41 556.354L1591.58 556.763L1591.77 557.166L1616.98 545.619ZM1603.05 524.617L1582.21 542.912L1582.41 543.142L1582.62 543.368L1603.05 524.617ZM1581.34 506.416L1566.04 529.546L1566.34 529.745L1566.65 529.936L1581.34 506.416ZM1552.67 492.882L1561.15 466.479L1561.15 466.479L1552.67 492.882ZM1772.91 410.825L1800.61 409.431L1772.91 410.825ZM1834.25 559.692L1861.7 555.781L1834.25 559.692ZM2379.7 356.921L2404.83 368.658L2379.7 356.921ZM2826.69 789.366L2853.03 780.691L2826.69 789.366ZM2342.92 503.574L2315.46 499.714L2342.92 503.574ZM2485.85 275.402V303.135C2507.23 303.135 2517.31 307.85 2521.77 311.875L2540.34 291.27L2558.9 270.664C2539.88 253.532 2513.64 247.67 2485.85 247.67V275.402ZM2540.34 291.27L2522.08 312.148C2528.21 317.504 2533.38 325.909 2536.03 339.854L2563.28 334.673L2590.52 329.491C2586.07 306.102 2575.95 285.57 2558.59 270.391L2540.34 291.27ZM2563.28 334.673L2536.11 340.237C2539.46 356.617 2541.28 376.456 2541.28 400.01L2569.01 400.01L2596.74 400.01C2596.74 373.784 2594.74 350.064 2590.45 329.108L2563.28 334.673ZM2569.01 400.01H2541.28C2541.28 407.786 2541.15 415.731 2540.88 423.844L2568.6 424.745L2596.32 425.646C2596.6 416.958 2596.74 408.412 2596.74 400.01H2569.01ZM2568.6 424.745H2540.87V476.548H2568.6H2596.33V424.745H2568.6ZM2568.6 476.548L2540.88 477.417C2541.15 485.851 2541.28 494.117 2541.28 502.216L2569.01 502.216L2596.74 502.216C2596.74 493.514 2596.6 484.668 2596.32 475.679L2568.6 476.548ZM2569.01 502.216L2541.29 503.117C2541.57 511.529 2541.84 519.786 2542.11 527.887L2569.83 526.951L2597.55 526.015C2597.28 517.938 2597 509.704 2596.73 501.315L2569.01 502.216ZM2569.83 526.951L2542.16 528.819C2542.73 537.264 2543.45 545.429 2544.31 553.31L2571.88 550.285L2599.45 547.26C2598.67 540.208 2598.02 532.817 2597.5 525.083L2569.83 526.951ZM2571.88 550.285L2544.26 552.772C2545.45 566.066 2547.44 578.452 2550.33 589.803L2577.21 582.954L2604.08 576.106C2602.06 568.167 2600.49 558.773 2599.5 547.798L2571.88 550.285ZM2577.21 582.954L2550.59 590.742C2554.01 602.427 2558.89 613.298 2565.66 622.82L2588.27 606.756L2610.87 590.692C2608.35 587.146 2605.87 582.149 2603.82 575.166L2577.21 582.954ZM2588.27 606.756L2566.1 623.429C2573.58 633.363 2583.01 641.255 2594.25 646.673L2606.29 621.69L2618.33 596.708C2615.37 595.281 2612.78 593.216 2610.43 590.082L2588.27 606.756ZM2606.29 621.69L2594.61 646.846C2605.57 651.933 2617.73 654.702 2630.43 655.845L2632.92 628.224L2635.4 600.602C2627.35 599.878 2621.75 598.293 2617.97 596.535L2606.29 621.69ZM2632.92 628.224L2630.03 655.805C2653.21 658.234 2674.94 661.258 2695.25 664.863L2700.1 637.558L2704.95 610.252C2683.2 606.39 2660.15 603.192 2635.81 600.642L2632.92 628.224ZM2700.1 637.558L2695.25 664.863C2715.91 668.531 2731.99 671.952 2743.75 675.089L2750.9 648.292L2758.04 621.495C2744.14 617.788 2726.35 614.051 2704.95 610.252L2700.1 637.558ZM2750.9 648.292L2746.86 675.73C2753.17 676.656 2760.18 678.454 2767.93 681.314L2777.53 655.292L2787.12 629.27C2776.3 625.286 2765.56 622.417 2754.93 620.854L2750.9 648.292ZM2777.53 655.292L2768.71 681.588C2775.26 683.781 2779.45 686.343 2782.14 688.709L2800.47 667.893L2818.79 647.077C2809.46 638.864 2798.36 633.026 2786.34 628.996L2777.53 655.292ZM2800.47 667.893L2781.02 687.661C2783.69 690.295 2786.03 693.823 2787.77 698.868L2813.99 689.827L2840.2 680.786C2835.93 668.408 2829.26 657.313 2819.92 648.124L2800.47 667.893ZM2817.22 689.39H2844.96V672.587H2817.22H2789.49V689.39H2817.22ZM2817.22 672.587H2844.96C2844.96 655.266 2845.22 637.621 2845.76 619.651L2818.04 618.824L2790.32 617.998C2789.77 636.498 2789.49 654.694 2789.49 672.587H2817.22ZM2818.04 618.824L2845.76 619.637C2846.3 601.082 2846.85 582.37 2847.39 563.502L2819.67 562.703L2791.95 561.904C2791.41 580.764 2790.86 599.467 2790.32 618.012L2818.04 618.824ZM2819.67 562.703L2847.38 563.901C2848.19 545.177 2849.13 526.612 2850.21 508.205L2822.53 506.582L2794.84 504.959C2793.75 523.652 2792.79 542.501 2791.96 561.505L2819.67 562.703ZM2822.53 506.582L2850.19 508.576C2851.53 489.897 2853.01 472.023 2854.62 454.952L2827.01 452.347L2799.4 449.742C2797.75 467.255 2796.24 485.538 2794.87 504.589L2822.53 506.582ZM2827.01 452.347L2854.58 455.327C2856.45 438.086 2858.57 421.669 2860.95 406.069L2833.54 401.885L2806.12 397.701C2803.61 414.17 2801.38 431.394 2799.44 449.366L2827.01 452.347ZM2833.54 401.885L2860.91 406.347C2866.8 370.235 2876.52 347.134 2887.6 333.658L2866.17 316.053L2844.74 298.447C2824.81 322.7 2812.79 356.82 2806.17 397.422L2833.54 401.885ZM2866.17 316.053L2887.6 333.658C2896.07 323.349 2911.19 315.489 2939.58 315.489L2939.58 287.756L2939.58 260.023C2901.08 260.023 2867.27 271.028 2844.74 298.447L2866.17 316.053ZM2939.58 287.756V315.489C2959.91 315.489 2971.44 321.76 2978.98 331.326L3000.76 314.166L3022.55 297.006C3002.35 271.358 2973.1 260.023 2939.58 260.023V287.756ZM3000.76 314.166L2978.98 331.326C2989.32 344.46 2996.76 361.886 3000.27 384.846L3027.68 380.662L3055.1 376.478C3050.44 345.99 3039.94 319.085 3022.55 297.006L3000.76 314.166ZM3027.68 380.662L3000.18 384.265C3001.47 394.042 3002.64 405.651 3003.71 419.15L3031.35 416.977L3059 414.803C3057.89 400.635 3056.62 388.033 3055.18 377.059L3027.68 380.662ZM3031.35 416.977L3003.76 419.751C3005.07 432.762 3006.12 446.931 3006.92 462.273L3034.62 460.836L3062.31 459.399C3061.48 443.3 3060.36 428.229 3058.95 414.202L3031.35 416.977ZM3034.62 460.836L3006.92 462.273C3007.73 477.805 3008.4 493.819 3008.94 510.316L3036.66 509.411L3064.37 508.507C3063.82 491.676 3063.14 475.307 3062.31 459.399L3034.62 460.836ZM3036.66 509.411L3008.96 510.793C3009.76 526.836 3010.29 542.878 3010.56 558.919L3038.29 558.458L3066.02 557.997C3065.74 541.34 3065.18 524.684 3064.35 508.029L3036.66 509.411ZM3038.29 558.458L3010.56 558.928C3010.83 574.972 3011.1 590.545 3011.37 605.647L3039.1 605.147L3066.83 604.648C3066.56 589.567 3066.29 574.014 3066.02 557.988L3038.29 558.458ZM3039.1 605.147L3011.37 605.647C3011.64 620.604 3011.78 634.268 3011.78 646.648H3039.51H3067.24C3067.24 633.876 3067.11 619.873 3066.83 604.648L3039.1 605.147ZM3039.51 646.648H3011.78C3011.78 697.335 3008.68 736.996 3002.92 766.266L3030.13 771.625L3057.34 776.984C3064.08 742.744 3067.24 699.086 3067.24 646.648H3039.51ZM3030.13 771.625L3002.93 766.215C2997.32 794.395 2987.98 810.777 2977.88 819.727L2996.28 840.479L3014.67 861.232C3037.21 841.256 3050.43 811.735 3057.33 777.035L3030.13 771.625ZM2996.28 840.479L2977.71 819.881C2968.55 828.132 2952.87 834.44 2926.12 834.44V862.173V889.906C2960.83 889.906 2991.91 881.752 3014.85 861.078L2996.28 840.479ZM2926.12 862.173V834.44C2896.46 834.44 2878.44 824.762 2866.72 808.337L2844.14 824.444L2821.57 840.552C2845.74 874.432 2882.37 889.906 2926.12 889.906V862.173ZM2844.14 824.444L2866.72 808.337C2861.19 800.593 2856.58 791.455 2853.03 780.691L2826.69 789.366L2800.35 798.041C2805.47 813.578 2812.49 827.826 2821.57 840.552L2844.14 824.444ZM2802.51 787.366L2778.85 772.902C2770.32 786.853 2759.22 798.408 2745.31 807.72L2760.73 830.77L2776.15 853.819C2796.65 840.107 2813.4 822.726 2826.18 801.831L2802.51 787.366ZM2760.73 830.77L2745.31 807.72C2730.01 817.952 2713.79 826.085 2696.6 832.154L2705.84 858.305L2715.07 884.456C2736.66 876.834 2757.03 866.61 2776.15 853.819L2760.73 830.77ZM2705.84 858.305L2696.53 832.178C2681.44 837.552 2661.89 842.023 2637.45 845.282L2641.11 872.771L2644.78 900.261C2671.68 896.675 2695.27 891.503 2715.14 884.431L2705.84 858.305ZM2641.11 872.771L2637.08 845.334C2613.01 848.871 2588.83 850.639 2564.51 850.639V878.372V906.105C2591.53 906.105 2618.41 904.139 2645.14 900.209L2641.11 872.771ZM2564.51 878.372V850.639C2552.17 850.639 2539.98 850.486 2527.93 850.181L2527.23 877.905L2526.52 905.629C2539.05 905.946 2551.71 906.105 2564.51 906.105V878.372ZM2527.23 877.905V850.172C2515.87 850.172 2505.15 849.598 2495.06 848.476L2492 876.039L2488.93 903.602C2501.23 904.969 2514.01 905.638 2527.23 905.638V877.905ZM2492 876.039L2494.36 848.407C2484.09 847.529 2475.11 846.38 2467.36 845.001L2462.5 872.305L2457.64 899.608C2467.37 901.34 2478.06 902.682 2489.64 903.671L2492 876.039ZM2462.5 872.305L2467.92 845.106C2423.26 836.21 2396.8 817.704 2382.52 792.736L2358.45 806.501L2334.37 820.266C2358.88 863.124 2401.79 888.487 2457.08 899.503L2462.5 872.305ZM2358.45 806.501L2382.66 792.977C2366.69 764.394 2357.51 723.589 2357.51 668.359H2329.77H2302.04C2302.04 728.87 2311.97 780.159 2334.24 820.025L2358.45 806.501ZM2329.77 668.359H2357.51C2357.51 655.862 2357.9 642.208 2358.69 627.379L2331 625.891L2303.31 624.402C2302.47 640.064 2302.04 654.722 2302.04 668.359H2329.77ZM2331 625.891L2358.7 627.349C2359.5 612.086 2360.57 596.339 2361.92 580.109L2334.28 577.82L2306.64 575.532C2305.25 592.281 2304.14 608.582 2303.31 624.432L2331 625.891ZM2334.28 577.82L2361.88 580.512C2363.5 563.877 2365.26 547.399 2367.15 531.079L2339.61 527.885L2312.06 524.691C2310.13 541.35 2308.33 558.162 2306.68 575.128L2334.28 577.82ZM2339.61 527.885L2367.1 531.527C2368.19 523.254 2369.29 515.223 2370.38 507.434L2342.92 503.574L2315.46 499.714C2314.34 507.655 2313.23 515.831 2312.11 524.242L2339.61 527.885ZM2337.16 501.763L2312.74 488.623C2308.63 496.253 2303.32 503.876 2296.66 511.47L2317.5 529.765L2338.34 548.06C2347.51 537.608 2355.31 526.562 2361.58 514.902L2337.16 501.763ZM2317.5 529.765L2296.97 511.121C2281.48 528.177 2267.36 541.038 2254.63 550.165L2270.8 572.7L2286.96 595.235C2303.73 583.206 2320.74 567.443 2338.03 548.408L2317.5 529.765ZM2270.8 572.7L2254.63 550.165C2240.9 560.017 2225.18 569.87 2207.4 579.698L2220.82 603.969L2234.24 628.239C2253.6 617.533 2271.2 606.54 2286.96 595.235L2270.8 572.7ZM2220.82 603.969L2207.09 579.871C2195.3 586.588 2185.43 592.608 2177.72 597.875L2193.37 620.771L2209.02 643.666C2214.97 639.599 2223.4 634.417 2234.55 628.066L2220.82 603.969ZM2193.37 620.771L2178.02 597.673C2169.83 603.119 2162.36 609.394 2156.35 616.729L2177.81 634.305L2199.26 651.88C2200.9 649.882 2203.81 647.134 2208.72 643.868L2193.37 620.771ZM2177.81 634.305L2156.96 616.01C2151.08 622.709 2146.15 630.685 2141.9 639.247L2166.75 651.572L2191.59 663.898C2194.44 658.147 2196.88 654.612 2198.65 652.6L2177.81 634.305ZM2166.75 651.572L2141.35 640.427C2138.67 646.544 2136.57 653.977 2134.8 661.716L2161.83 667.906L2188.86 674.096C2190.37 667.524 2191.55 664.068 2192.14 662.718L2166.75 651.572ZM2161.83 667.906L2134.59 662.708C2133.17 670.164 2131.62 678.964 2129.96 689.07L2157.32 693.574L2184.69 698.078C2186.3 688.272 2187.76 679.96 2189.07 673.104L2161.83 667.906ZM2157.32 693.574L2129.98 688.929C2128.3 698.859 2126.62 709.688 2124.95 721.401L2152.41 725.31L2179.86 729.218C2181.47 717.908 2183.07 707.579 2184.66 698.219L2157.32 693.574ZM2152.41 725.31L2124.87 722.043C2123.49 733.641 2122.12 745.701 2120.74 758.22L2148.31 761.245L2175.88 764.27C2177.24 751.899 2178.59 740.002 2179.95 728.576L2152.41 725.31ZM2148.31 761.245L2120.77 757.986C2118.02 781.263 2110.55 797.414 2100.12 808.657L2120.45 827.516L2140.79 846.374C2160.95 824.638 2172.05 796.608 2175.85 764.505L2148.31 761.245ZM2120.45 827.516L2100.13 808.646C2090.92 818.569 2078.92 824.051 2061.46 824.051L2061.46 851.784L2061.46 879.517C2092.62 879.517 2119.95 868.82 2140.78 846.385L2120.45 827.516ZM2061.46 851.784V824.051C2034.76 824.051 2021.67 818.383 2015.78 813.038L1997.15 833.583L1978.52 854.128C1999.39 873.051 2029.18 879.517 2061.46 879.517V851.784ZM1997.15 833.583L2015.78 813.039C2008.23 806.194 2000.76 793.562 1996 771.307L1968.88 777.113L1941.76 782.919C1947.92 811.689 1959.3 836.704 1978.52 854.128L1997.15 833.583ZM1968.88 777.113L1996.15 772.074C1995.17 766.735 1994.29 761.044 1993.53 754.995L1966.01 758.445L1938.5 761.896C1939.38 768.914 1940.41 775.669 1941.61 782.153L1968.88 777.113ZM1966.01 758.445L1993.53 754.995C1992.73 748.571 1991.92 741.825 1991.11 734.756L1963.56 737.91L1936 741.065C1936.83 748.308 1937.66 755.253 1938.5 761.896L1966.01 758.445ZM1963.56 737.91L1991.11 734.756C1990.34 728.033 1989.69 720.971 1989.17 713.566L1961.51 715.509L1933.84 717.451C1934.42 725.603 1935.14 733.476 1936 741.065L1963.56 737.91ZM1961.51 715.509L1989.18 713.641C1988.63 705.527 1988.08 697.569 1987.53 689.765L1959.87 691.708L1932.2 693.651C1932.75 701.403 1933.29 709.312 1933.84 717.377L1961.51 715.509ZM1959.87 691.708L1987.51 689.502C1985.55 664.888 1982.86 642.933 1979.37 623.749L1952.09 628.704L1924.8 633.66C1927.87 650.566 1930.36 670.614 1932.22 693.914L1959.87 691.708ZM1952.09 628.704L1979.45 624.225C1975.73 601.484 1966.22 580.316 1946.84 567.074L1931.19 589.969L1915.54 612.864C1918.02 614.556 1922.43 619.211 1924.72 633.183L1952.09 628.704ZM1931.19 589.969L1946.48 566.831C1932.14 557.356 1918.2 549.071 1904.66 542.03L1891.87 566.634L1879.07 591.238C1890.66 597.264 1902.93 604.536 1915.9 613.107L1931.19 589.969ZM1891.87 566.634L1904.88 542.147C1893.23 535.95 1881.83 529.312 1870.7 522.23L1855.82 545.633L1840.94 569.035C1853.29 576.888 1865.92 584.25 1878.85 591.121L1891.87 566.634ZM1834.25 559.692L1806.79 563.603C1807.88 571.222 1808.41 578.758 1808.41 586.221L1836.15 586.221L1863.88 586.221C1863.88 576.088 1863.15 565.938 1861.7 555.781L1834.25 559.692ZM1836.15 586.221H1808.41C1808.41 612.842 1802.27 638.04 1789.8 662.159L1814.43 674.894L1839.07 687.628C1855.55 655.744 1863.88 621.825 1863.88 586.221H1836.15ZM1814.43 674.894L1789.86 662.046C1777.08 686.485 1759.03 709.431 1735.26 730.812L1753.81 751.432L1772.35 772.051C1800.47 746.763 1822.84 718.683 1839.01 687.741L1814.43 674.894ZM1753.81 751.432L1735.26 730.812C1711.44 752.233 1683.35 770.894 1650.77 786.676L1662.86 811.635L1674.95 836.593C1711.74 818.774 1744.28 797.3 1772.35 772.051L1753.81 751.432ZM1662.86 811.635L1650.69 786.714C1618.35 802.507 1582.82 814.903 1544.01 823.806L1550.21 850.837L1556.41 877.868C1598.98 868.103 1638.55 854.365 1675.03 836.556L1662.86 811.635ZM1550.21 850.837L1543.97 823.815C1505.71 832.649 1465.62 837.105 1423.62 837.105V864.838V892.571C1469.57 892.571 1513.86 887.692 1556.45 877.859L1550.21 850.837ZM1423.62 864.838L1423.62 837.105C1395.53 837.105 1376.01 833.001 1363.18 826.801L1351.12 851.771L1339.05 876.74C1362.27 887.964 1391.09 892.571 1423.62 892.571L1423.62 864.838ZM1351.12 851.771L1362.83 826.634C1350.43 820.853 1341.49 812.213 1335.28 800.004L1310.56 812.568L1285.84 825.133C1297.66 848.392 1315.75 865.887 1339.4 876.907L1351.12 851.771ZM1310.56 812.568L1335.52 800.481C1328.54 786.079 1322.97 765.967 1319.65 739.151L1292.12 742.564L1264.6 745.978C1268.38 776.41 1275.1 802.967 1285.6 824.656L1310.56 812.568ZM1292.12 742.564L1319.67 739.31C1317.85 723.951 1316.53 706.773 1315.74 687.736L1288.03 688.895L1260.32 690.053C1261.16 710.218 1262.58 728.821 1264.58 745.819L1292.12 742.564ZM1288.03 688.895L1315.74 687.736C1314.94 668.585 1314.53 647.509 1314.53 624.49H1286.8H1259.07C1259.07 648.141 1259.48 670.001 1260.32 690.053L1288.03 688.895ZM1286.8 624.49H1314.53C1314.53 582.901 1315.48 544.348 1317.36 508.817L1289.67 507.35L1261.97 505.883C1260.03 542.533 1259.07 582.075 1259.07 624.49H1286.8ZM1289.67 507.35L1317.35 509.011C1319.47 473.717 1323.55 442.858 1329.44 416.284L1302.37 410.277L1275.29 404.271C1268.62 434.323 1264.24 468.178 1261.98 505.688L1289.67 507.35ZM1302.37 410.277L1329.38 416.554C1338.41 377.696 1353.03 349.809 1371.72 330.766L1351.93 311.338L1332.14 291.91C1304.41 320.158 1285.99 358.231 1275.35 404.001L1302.37 410.277ZM1351.93 311.338L1371.85 330.637C1388.24 313.723 1413.99 303.135 1453.94 303.135L1453.94 275.402L1453.94 247.67C1404.31 247.67 1362.06 261.039 1332.02 292.039L1351.93 311.338ZM1453.94 275.402V303.135C1492.92 303.135 1529.87 308.933 1564.92 320.423L1573.56 294.07L1582.2 267.718C1541.32 254.317 1498.52 247.67 1453.94 247.67V275.402ZM1573.56 294.07L1565.17 320.504C1601.07 331.897 1633.82 347.457 1663.53 367.13L1678.84 344.007L1694.15 320.883C1659.96 298.243 1622.52 280.512 1581.95 267.637L1573.56 294.07ZM1678.84 344.007L1663.69 367.234C1693.68 386.8 1719.45 408.974 1741.16 433.706L1762 415.411L1782.84 397.116C1757.58 368.333 1727.91 342.905 1693.99 320.78L1678.84 344.007ZM1772.91 410.825L1800.61 409.431C1800.46 406.502 1800.39 403.522 1800.39 400.49H1772.66H1744.92C1744.92 404.43 1745.02 408.34 1745.22 412.218L1772.91 410.825ZM1772.66 400.49H1800.39C1800.39 379.704 1804.65 363.991 1811.69 352.054L1787.81 337.953L1763.93 323.852C1750.77 346.139 1744.92 372.118 1744.92 400.49H1772.66ZM1787.81 337.953L1811.8 351.866C1819.45 338.682 1829.27 329.227 1841.41 322.759L1828.37 298.284L1815.33 273.809C1793.6 285.387 1776.39 302.378 1763.82 324.04L1787.81 337.953ZM1828.37 298.284L1841.76 322.571C1854.29 315.663 1868.47 312.016 1884.9 312.016L1884.9 284.283L1884.9 256.55C1859.82 256.55 1836.31 262.238 1814.98 273.997L1828.37 298.284ZM1884.9 284.283V312.016C1896.61 312.016 1906.17 314.507 1914.24 318.903L1927.51 294.551L1940.78 270.198C1923.72 260.905 1904.87 256.55 1884.9 256.55V284.283ZM1927.51 294.551L1914.71 319.155C1921.17 322.516 1929.79 330.267 1939.58 346.041L1963.15 331.419L1986.71 316.797C1974.11 296.481 1958.96 279.653 1940.3 269.947L1927.51 294.551ZM1963.15 331.419L1938.83 344.758C1944.55 355.181 1950.81 365.872 1957.6 376.828L1981.17 362.222L2004.75 347.615C1998.42 337.415 1992.67 327.57 1987.46 318.08L1963.15 331.419ZM1981.17 362.222L1957.8 377.144C1964.62 387.839 1971.49 397.946 1978.4 407.456L2000.83 391.156L2023.27 374.857C2017.07 366.321 2010.83 357.139 2004.55 347.299L1981.17 362.222ZM2000.83 391.156L1978.14 407.094C1985.51 417.584 1993.45 427.189 2001.99 435.844L2021.73 416.357L2041.46 396.871C2035.26 390.592 2029.27 383.397 2023.53 375.219L2000.83 391.156ZM2021.73 416.357L2001.99 435.844C2011.09 445.05 2021.09 452.746 2032.06 458.579L2045.08 434.092L2058.1 409.605C2052.68 406.726 2047.12 402.599 2041.46 396.871L2021.73 416.357ZM2045.08 434.092L2032.8 458.959C2044.76 464.862 2057.55 467.892 2070.89 467.892V440.159V412.426C2066.19 412.426 2061.78 411.411 2057.35 409.224L2045.08 434.092ZM2070.89 440.159V467.892C2087.26 467.892 2102.11 462.158 2114.94 452.57L2098.33 430.358L2081.73 408.147C2077.07 411.626 2073.63 412.426 2070.89 412.426V440.159ZM2098.33 430.358L2114.94 452.57C2125.53 444.648 2135.36 435.234 2144.47 424.501L2123.32 406.558L2102.18 388.615C2095.44 396.549 2088.61 403.002 2081.73 408.147L2098.33 430.358ZM2123.32 406.558L2144.64 424.29C2155.34 411.427 2165.24 397.613 2174.36 382.875L2150.77 368.288L2127.18 353.701C2119.36 366.342 2110.97 378.042 2102 388.826L2123.32 406.558ZM2150.77 368.288L2174.29 382.973C2182.62 369.641 2190.12 359.013 2196.8 350.861L2175.35 333.286L2153.9 315.711C2145.28 326.227 2136.4 338.934 2127.24 353.603L2150.77 368.288ZM2175.35 333.286L2195.98 351.818C2206.71 339.868 2216.57 331.561 2225.42 326.167L2210.99 302.484L2196.56 278.802C2181.92 287.719 2168.02 299.947 2154.72 314.755L2175.35 333.286ZM2210.99 302.484L2225.18 326.312C2232.75 321.804 2241.06 319.483 2250.72 319.483L2250.72 291.75L2250.72 264.017C2231.44 264.017 2213.26 268.853 2196.8 278.657L2210.99 302.484ZM2250.72 291.75V319.483C2265.11 319.483 2277.73 323.561 2289.39 331.974L2305.62 309.484L2321.84 286.994C2300.73 271.762 2276.76 264.017 2250.72 264.017V291.75ZM2305.62 309.484L2289.39 331.974C2301.98 341.057 2312.1 352.947 2319.77 368.162L2344.54 355.688L2369.3 343.213C2357.85 320.471 2342.03 301.557 2321.85 286.995L2305.62 309.484ZM2379.7 356.921L2404.83 368.658C2410.44 356.651 2416.58 346.064 2423.2 336.8L2400.64 320.672L2378.08 304.544C2369.28 316.861 2361.46 330.44 2354.57 345.185L2379.7 356.921ZM2400.64 320.672L2423.2 336.8C2439.9 313.448 2460.12 303.135 2485.85 303.135V275.402V247.67C2441.12 247.67 2404.54 267.536 2378.08 304.543L2400.64 320.672ZM1517.84 487.748L1517.84 460.015C1505 460.015 1492.58 464.422 1482.79 474.081L1502.28 493.815L1521.76 513.55C1521.22 514.091 1520.36 514.697 1519.31 515.104C1518.31 515.494 1517.71 515.481 1517.84 515.481L1517.84 487.748ZM1502.28 493.815L1482.12 474.764C1473.96 483.405 1469.32 494.325 1466.49 504.785L1493.27 512.017L1520.04 519.248C1520.77 516.559 1521.48 514.785 1522.01 513.706C1522.54 512.627 1522.77 512.509 1522.43 512.866L1502.28 493.815ZM1493.27 512.017L1466.41 505.084C1464.64 511.934 1463.36 519.475 1462.44 527.53L1489.99 530.685L1517.54 533.839C1518.26 527.582 1519.16 522.678 1520.12 518.949L1493.27 512.017ZM1489.99 530.685L1462.34 528.574C1461.73 536.561 1461.44 545.213 1461.44 554.486H1489.17H1516.9C1516.9 546.336 1517.16 539.12 1517.64 532.795L1489.99 530.685ZM1489.17 554.486H1461.44C1461.44 567.921 1461.72 580.094 1462.29 590.962L1489.99 589.488L1517.68 588.015C1517.17 578.349 1516.9 567.186 1516.9 554.486H1489.17ZM1489.99 589.488L1462.29 590.962C1462.88 602.016 1463.94 612.051 1465.62 620.821L1492.86 615.623L1520.1 610.425C1519.04 604.883 1518.19 597.495 1517.68 588.015L1489.99 589.488ZM1492.86 615.623L1465.69 621.188C1468.05 632.704 1472.23 644.752 1480.26 654.385C1489.21 665.117 1501.78 671.358 1516.21 671.358L1516.21 643.625L1516.21 615.892C1517.05 615.892 1518.5 616.087 1520.1 616.854C1521.68 617.608 1522.57 618.512 1522.86 618.864C1523.09 619.134 1522.72 618.78 1522.09 617.255C1521.46 615.739 1520.71 613.415 1520.03 610.058L1492.86 615.623ZM1516.21 643.625V671.358C1531.93 671.358 1546.84 669.57 1560.67 665.63L1553.08 638.958L1545.48 612.286C1537.46 614.568 1527.79 615.892 1516.21 615.892V643.625ZM1553.08 638.958L1561.18 665.48C1574.31 661.468 1586.42 656.183 1597.26 649.411L1582.57 625.891L1567.88 602.371C1561.78 606.177 1554.24 609.604 1544.97 612.436L1553.08 638.958ZM1582.57 625.891L1597.87 649.021C1608.27 642.142 1617.46 634.187 1625.13 625.034L1603.87 607.223L1582.61 589.411C1578.81 593.948 1573.8 598.439 1567.27 602.76L1582.57 625.891ZM1603.87 607.223L1625.11 625.055C1632.41 616.36 1638.5 607.14 1642.79 597.366L1617.39 586.221L1592 575.075C1590.28 578.991 1587.35 583.774 1582.63 589.39L1603.87 607.223ZM1617.39 586.221L1642.96 596.955C1647.05 587.215 1649.63 576.854 1649.63 566.153L1621.9 566.153L1594.16 566.153C1594.16 567.898 1593.74 570.914 1591.82 575.486L1617.39 586.221ZM1621.9 566.153H1649.63C1649.63 554.903 1646.8 544.122 1642.2 534.072L1616.98 545.619L1591.77 557.166C1593.72 561.428 1594.16 564.336 1594.16 566.153H1621.9ZM1616.98 545.619L1642.55 534.884C1638.09 524.264 1631.51 514.616 1623.49 505.866L1603.05 524.617L1582.62 543.368C1587.15 548.309 1589.86 552.663 1591.41 556.354L1616.98 545.619ZM1603.05 524.617L1623.89 506.322C1615.94 497.261 1606.58 489.482 1596.04 482.896L1581.34 506.416L1566.65 529.936C1573.04 533.928 1578.15 538.284 1582.21 542.912L1603.05 524.617ZM1581.34 506.416L1596.64 483.286C1585.86 476.154 1573.97 470.598 1561.15 466.479L1552.67 492.882L1544.18 519.285C1552.67 522.011 1559.89 525.477 1566.04 529.546L1581.34 506.416ZM1552.67 492.882L1561.15 466.479C1547.44 462.074 1532.94 460.015 1517.84 460.015V487.748V515.481C1527.88 515.481 1536.59 516.844 1544.18 519.285L1552.67 492.882ZM1762 415.411L1741.16 433.706C1752.91 447.093 1769.58 446.515 1779.71 442.235C1789.79 437.973 1801.48 426.706 1800.61 409.431L1772.91 410.825L1745.22 412.218C1744.62 400.381 1752.65 393.453 1758.11 391.148C1763.6 388.824 1774.68 387.821 1782.84 397.116L1762 415.411ZM1855.82 545.633L1871.05 522.458C1854.23 511.404 1836.02 516.844 1825.99 523.414C1815.95 529.994 1804.03 544.224 1806.79 563.603L1834.25 559.692L1861.7 555.781C1862.98 564.78 1857.47 569.1 1856.39 569.806C1855.33 570.502 1848.64 574.103 1840.59 568.808L1855.82 545.633ZM2344.54 355.688L2319.91 368.444C2325.67 379.553 2335.79 384.563 2341.39 386.719C2347.91 389.23 2354.83 390.39 2361.06 390.658C2367.24 390.923 2374.45 390.386 2381.42 388.188C2387.5 386.271 2398.93 381.281 2404.83 368.658L2379.7 356.921L2354.57 345.185C2356.53 340.995 2359.31 338.468 2361.16 337.159C2362.95 335.888 2364.34 335.415 2364.74 335.289C2365.44 335.07 2364.97 335.309 2363.44 335.244C2361.98 335.181 2361.18 334.903 2361.33 334.961C2361.44 335.004 2362.35 335.355 2363.65 336.313C2364.92 337.252 2367.29 339.313 2369.16 342.931L2344.54 355.688ZM2826.69 789.366L2853.03 780.691C2850.46 772.866 2845.4 768.026 2842.02 765.47C2838.53 762.827 2835.02 761.222 2832.41 760.233C2827.17 758.25 2821.75 757.337 2817.23 756.982C2812.67 756.624 2807.29 756.697 2801.96 757.74C2799.3 758.26 2795.8 759.187 2792.15 760.974C2788.7 762.658 2783.12 766.085 2779.02 772.634L2802.51 787.366L2826.01 802.098C2822.64 807.473 2818.32 809.917 2816.51 810.801C2814.49 811.788 2813.01 812.096 2812.62 812.172C2811.83 812.327 2811.98 812.206 2812.89 812.277C2813.83 812.351 2813.79 812.49 2812.78 812.109C2812.29 811.922 2810.61 811.255 2808.53 809.681C2806.57 808.193 2802.49 804.549 2800.35 798.041L2826.69 789.366ZM2342.92 503.574L2370.38 507.434C2373.21 487.328 2357.5 476.812 2348.99 474.156C2340.48 471.499 2322.56 471.273 2313.03 488.097L2337.16 501.763L2361.29 515.429C2353.21 529.71 2338.37 528.943 2332.47 527.104C2326.59 525.267 2313.04 516.928 2315.46 499.714L2342.92 503.574ZM2813.99 689.827L2788.03 699.592C2791.71 709.375 2799.37 714.339 2804.9 716.425C2810.26 718.448 2815.37 718.608 2819.39 718.081C2823.34 717.562 2828.57 716.067 2833.54 712.301C2838.9 708.233 2844.96 700.455 2844.96 689.39H2817.22H2789.49C2789.49 678.997 2795.2 671.767 2800.03 668.104C2804.46 664.742 2808.97 663.507 2812.17 663.087C2815.44 662.659 2819.77 662.755 2824.48 664.532C2829.36 666.372 2836.5 670.908 2839.94 680.062L2813.99 689.827Z" fill="#FBDB7B" mask="url(#path-8-inside-3_6588_6244)"/>
</g>
</g>
<defs>
<clipPath id="clip0_6588_6244">
<rect width="3069" height="1155" fill="white"/>
</clipPath>
<clipPath id="clip1_6588_6244">
<rect width="1118" height="1109" fill="white" transform="translate(11 23)"/>
</clipPath>
<clipPath id="clip2_6588_6244">
<rect width="2107.69" height="959.553" fill="white" transform="translate(1109.31 97.9141)"/>
</clipPath>
</defs>
</svg>
